<?xml version="1.0" encoding="UTF-8" standalone="no"?>
<svg
   xmlns:dc="http://purl.org/dc/elements/1.1/"
   xmlns:cc="http://creativecommons.org/ns#"
   xmlns:rdf="http://www.w3.org/1999/02/22-rdf-syntax-ns#"
   xmlns:svg="http://www.w3.org/2000/svg"
   xmlns="http://www.w3.org/2000/svg"
   xmlns:sodipodi="http://sodipodi.sourceforge.net/DTD/sodipodi-0.dtd"
   xmlns:inkscape="http://www.inkscape.org/namespaces/inkscape"
   sodipodi:docname="inductor_symbol.svg"
   inkscape:version="1.0 (1.0+r73+1)"
   id="svg3772"
   version="1.1"
   viewBox="0 0 210 297"
   height="297mm"
   width="210mm">
  <defs
     id="defs3766" />
  <sodipodi:namedview
     inkscape:window-maximized="1"
     inkscape:window-y="27"
     inkscape:window-x="67"
     inkscape:window-height="1025"
     inkscape:window-width="1853"
     showgrid="true"
     inkscape:document-rotation="0"
     inkscape:current-layer="layer1"
     inkscape:document-units="mm"
     inkscape:cy="-0.58791703"
     inkscape:cx="25.71409"
     inkscape:zoom="16"
     inkscape:pageshadow="2"
     inkscape:pageopacity="0.0"
     borderopacity="1.0"
     bordercolor="#666666"
     pagecolor="#ffffff"
     id="base">
    <inkscape:grid
       id="grid4341"
       type="xygrid" />
  </sodipodi:namedview>
  <metadata
     id="metadata3769">
    <rdf:RDF>
      <cc:Work
         rdf:about="">
        <dc:format>image/svg+xml</dc:format>
        <dc:type
           rdf:resource="http://purl.org/dc/dcmitype/StillImage" />
        <dc:title></dc:title>
      </cc:Work>
    </rdf:RDF>
  </metadata>
  <g
     id="layer1"
     inkscape:groupmode="layer"
     inkscape:label="Layer 1">
    <path
       sodipodi:nodetypes="csssssssc"
       id="path4339"
       d="m 1.3229167,0 c -0.00928,-1.3210797 0,-2.6458333 1.3229166,-2.6458333 1.3229167,0 2.6458334,0.79375 2.6458334,2.61637635 0,1.35237365 0,2.67529025 -1.299846,2.67529025 -1.3459874,0 -1.3459874,-1.3229166 -1.3459874,-2.67308711 0,-1.82482949 1.8685563,-2.65535079 3.1914729,-2.65535079 1.3229167,0 3.4231105,0.8305213 3.4220737,2.68939771 C 9.2586643,1.2898129 9.2604167,2.6458333 7.9375,2.6458333 6.6145833,2.6458333 6.6145833,1.3229167 6.6145833,0"
       style="fill:none;stroke:#000000;stroke-width:0.264583px;stroke-linecap:butt;stroke-linejoin:miter;stroke-opacity:1" />
    <path
       style="fill:none;stroke:#000000;stroke-width:0.264583px;stroke-linecap:butt;stroke-linejoin:miter;stroke-opacity:1"
       d="m 6.6145833,0 c 0,-1.8248295 1.868557,-2.6553508 3.191473,-2.6553508 1.3229167,0 3.4231107,0.8032676 3.4220737,2.662144 -7.14e-4,1.28302 10e-4,2.6390402 -1.32188,2.6390402 C 10.583333,2.6458334 10.583333,1.322917 10.583333,0"
       id="path4339-7"
       sodipodi:nodetypes="csssc" />
    <path
       sodipodi:nodetypes="csssc"
       id="path4339-7-5"
       d="m 10.583333,0 c 0,-1.8248295 1.868557,-2.6553508 3.191473,-2.6553508 1.322917,0 3.423111,0.8032676 3.422074,2.662144 -7.15e-4,1.2830201 0.001,2.6390402 -1.32188,2.6390402 C 14.552082,2.6458334 14.552082,1.322917 14.552082,0"
       style="fill:none;stroke:#000000;stroke-width:0.264583px;stroke-linecap:butt;stroke-linejoin:miter;stroke-opacity:1" />
    <path
       sodipodi:nodetypes="csssc"
       id="path4339-7-3"
       d="m 14.552083,0 c 0,-1.8248295 1.868557,-2.6553508 3.191473,-2.6553508 1.322917,0 3.423111,0.8032676 3.422074,2.662144 -7.14e-4,1.2830201 0.001,2.6390402 -1.32188,2.6390402 C 18.520833,2.6458334 18.520833,1.322917 18.520833,0"
       style="fill:none;stroke:#000000;stroke-width:0.264583px;stroke-linecap:butt;stroke-linejoin:miter;stroke-opacity:1" />
    <path
       sodipodi:nodetypes="csssc"
       id="path4339-7-56"
       d="m 18.520833,0 c 0,-1.8248295 1.868557,-2.6553508 3.191473,-2.6553508 1.322917,0 3.423111,0.8032676 3.422074,2.662144 -7.15e-4,1.2830201 0.001,2.6390402 -1.32188,2.6390402 C 22.489582,2.6458334 22.489582,1.322917 22.489582,0"
       style="fill:none;stroke:#000000;stroke-width:0.264583px;stroke-linecap:butt;stroke-linejoin:miter;stroke-opacity:1" />
    <path
       style="fill:none;stroke:#000000;stroke-width:0.264583px;stroke-linecap:butt;stroke-linejoin:miter;stroke-opacity:1"
       d="M 0.79375,0 H -1.8520832"
       id="path238" />
  </g>
</svg>
