<?xml version="1.0" encoding="UTF-8" standalone="no"?>
<svg
   xmlns:dc="http://purl.org/dc/elements/1.1/"
   xmlns:cc="http://creativecommons.org/ns#"
   xmlns:rdf="http://www.w3.org/1999/02/22-rdf-syntax-ns#"
   xmlns:svg="http://www.w3.org/2000/svg"
   xmlns="http://www.w3.org/2000/svg"
   xmlns:sodipodi="http://sodipodi.sourceforge.net/DTD/sodipodi-0.dtd"
   xmlns:inkscape="http://www.inkscape.org/namespaces/inkscape"
   sodipodi:docname="red_hand.svg"
   inkscape:version="1.0 (1.0+r73+1)"
   id="svg3389"
   version="1.1"
   viewBox="0 0 51.992214 35.800831"
   height="35.800831mm"
   width="51.992214mm">
  <defs
     id="defs3383" />
  <sodipodi:namedview
     inkscape:window-maximized="0"
     inkscape:window-y="0"
     inkscape:window-x="1730"
     inkscape:window-height="863"
     inkscape:window-width="1427"
     fit-margin-bottom="0"
     fit-margin-right="0"
     fit-margin-left="0"
     fit-margin-top="0"
     showgrid="false"
     inkscape:document-rotation="0"
     inkscape:current-layer="layer1"
     inkscape:document-units="mm"
     inkscape:cy="82.16598"
     inkscape:cx="152.64576"
     inkscape:zoom="1.979899"
     inkscape:pageshadow="2"
     inkscape:pageopacity="0.0"
     borderopacity="1.0"
     bordercolor="#666666"
     pagecolor="#ffffff"
     id="base" />
  <metadata
     id="metadata3386">
    <rdf:RDF>
      <cc:Work
         rdf:about="">
        <dc:format>image/svg+xml</dc:format>
        <dc:type
           rdf:resource="http://purl.org/dc/dcmitype/StillImage" />
        <dc:title></dc:title>
      </cc:Work>
    </rdf:RDF>
  </metadata>
  <g
     transform="translate(-87.396749,-74.325775)"
     id="layer1"
     inkscape:groupmode="layer"
     inkscape:label="Layer 1">
    <g
       id="g1720-2-3"
       transform="matrix(1.0836235,0,0,1.0836235,500.54555,64.323024)">
      <path
         sodipodi:nodetypes="csssssscssccsssccsssccccssccssc"
         id="path595-9-7"
         d="m -360.52878,27.611746 c -0.61422,0.235133 -1.04697,0.23008 -1.90136,0.361207 -1.18736,0.18224 -2.87766,-0.673771 -3.65993,-0.377775 -1.29147,0.488669 -3.96673,0.678675 -5.86667,0.194701 -1.1058,-0.281683 -1.99615,-0.638109 -4.31512,0.06656 -1.10617,0.336134 -2.7935,-0.165944 -3.77738,-0.818325 -0.99609,-0.660074 -1.49117,-2.560687 -0.51015,-3.611306 0.78691,-0.84273 2.2411,-1.421595 3.34324,-1.632964 2.41229,-0.462627 4.96588,-0.342026 7.4067,-0.48725 2.27559,-0.135392 4.56204,-0.380511 6.83591,-0.480677 1.42787,-0.0629 6.25579,0.0992 7.20725,-1.110839 m 2.20909,1.397181 c -2.44005,-1.045739 -3.38315,-2.717992 -3.85792,-2.999178 -2.12194,-1.256715 -5.61901,-3.11498 -5.84384,-5.873405 -0.0373,-0.458246 -0.10658,-1.227983 0.068,-1.659301 0.72359,-1.7878684 1.81441,-1.2488654 3.70792,-0.27408 1.00368,0.516682 4.3358,0.416992 4.88011,1.394318 0.55124,0.989761 4.02025,2.56447 4.53714,3.56617 0.61331,1.188569 4.96338,1.3598 5.96238,2.289911 3.18071,2.961394 1.43824,2.891364 5.56604,3.537414 1.91673,0.299992 2.80955,0.02684 2.90683,0.582046 0.12121,0.02701 0.53508,0.73229 0.65461,0.766122 0.24204,0.591135 0.59062,1.110043 0.78516,1.807201 0.42474,0.790328 0.60332,1.720489 0.65407,2.097945 0.0681,0.794345 0.14263,1.292096 -0.0249,2.129678 -0.18362,0.918121 -0.27522,1.047595 -0.45078,1.508282 -0.16527,0.433664 -0.37293,0.664103 -0.68971,1.150647 -0.37354,0.622611 -0.85812,1.105966 -1.36387,1.410772 -0.092,0.05572 -0.33565,0.233205 -0.41986,0.301208 -0.0373,0.03013 -0.17019,0.0783 -0.12226,0.07573 0.044,-0.0024 0.0926,-0.024 0.13135,-0.03622"
         style="fill:#ff0000;stroke:#000000;stroke-width:0.348579px;stroke-linecap:butt;stroke-linejoin:miter;stroke-opacity:1" />
      <path
         id="path601-3-4"
         d="m -364.36316,39.58697 c 1.90674,1.694052 3.87568,2.534516 6.43162,2.507002 0.579,-0.0062 1.26408,0.01624 1.80751,-0.210709 0.81254,-0.339356 1.37257,-0.977104 1.95697,-1.600042 0.64111,-0.683387 1.15928,-1.354881 1.26391,-2.317751 0.13162,-1.210852 -0.36077,-1.442671 -1.41337,-1.863423 -0.87572,-0.350055 -0.65154,-0.581128 -1.33215,-6.98e-4"
         style="fill:#ff0000;stroke:#000000;stroke-width:0.348579px;stroke-linecap:butt;stroke-linejoin:miter;stroke-opacity:1" />
      <path
         sodipodi:nodetypes="csssc"
         id="path603-1-5"
         d="m -352.95111,38.644094 c 0.22889,0.220441 2.99533,0.174004 3.31301,0.165831 1.36042,-0.035 3.75635,-1.582786 4.37269,-1.977005 2.1242,-1.358648 2.92461,-3.073876 5.69436,-3.423957 0.61688,-0.07797 3.10399,-0.26627 3.09426,-0.793584"
         style="fill:none;stroke:#000000;stroke-width:0.348579px;stroke-linecap:butt;stroke-linejoin:miter;stroke-opacity:1" />
      <path
         sodipodi:nodetypes="cssssssc"
         id="path599-9-2"
         d="m -370.98617,33.31254 c -0.69716,0.69716 -0.42578,0.478127 -0.91621,1.373824 -0.95781,1.749339 0.71288,3.803257 2.2424,4.44457 2.26347,0.949054 7.45575,0.641219 9.78501,0.09218 2.29164,-0.540172 4.49529,-2.508779 4.77022,-4.90548 0.12806,-1.116277 0.15323,-1.005098 -0.37807,-1.618234 -0.32959,-0.380353 -0.96416,-0.653699 -1.52496,-0.309764 -0.37956,0.232781 -0.49129,0.0535 -0.38379,0.225745"
         style="fill:#ff0000;stroke:#000000;stroke-width:0.348579px;stroke-linecap:butt;stroke-linejoin:miter;stroke-opacity:1" />
      <path
         sodipodi:nodetypes="csssssssssc"
         id="path597-4-5"
         d="m -369.94043,28.083847 c -0.35913,1.552064 -2.0113,2.471651 -1.35037,4.232082 1.14256,3.043249 8.98395,3.138527 11.32071,2.087301 1.29499,-0.582571 2.14177,-1.792514 3.27526,-2.594311 0.31249,-0.221045 0.64839,-0.378061 0.92415,-0.64529 0.75764,-0.734189 2.13863,-3.942201 0.67951,-4.707944 -0.91403,-0.479684 -2.65871,-0.312164 -3.66575,0.01304 -1.35404,0.437332 -1.77983,1.292095 -2.94172,2.085358 -0.36645,0.250186 -0.88808,0.519232 -1.26083,0.756273 -0.18794,0.119521 -0.84484,0.448306 -1.19644,0.200505 -0.1224,-0.08628 -0.3111,-0.258325 -0.3764,-0.792244"
         style="fill:#ff0000;stroke:#000000;stroke-width:0.348579px;stroke-linecap:butt;stroke-linejoin:miter;stroke-opacity:1" />
      <path
         sodipodi:nodetypes="sssssssssssssss"
         transform="matrix(0.26458333,0,0,0.26458333,-220.99028,-30.898094)"
         id="path814-7-4"
         d="m -540.71059,227.75433 c -0.18179,-0.12353 -0.48756,-0.44854 -0.62453,-0.70039 -0.22377,-0.41145 -0.32604,-0.67659 -0.46273,-1.61911 -0.0345,-0.23763 -0.42684,-0.16923 -0.64913,-0.12087 -0.29918,0.0651 -16.05695,-1.79983 -15.95515,-1.8876 0.038,-0.0328 1.8561,-0.0142 2.5766,-0.11594 2.58536,-0.36491 5.06702,-0.72521 6.91668,-1.39621 1.73492,-0.62937 2.57057,-0.59397 6.76558,0.38557 2.79732,0.65318 3.76394,0.79315 5.10366,0.9279 0.41348,0.0416 2.87602,-0.12178 4.1925,-0.30199 1.31649,-0.18022 2.78486,-0.41227 2.80519,-0.39194 0.0433,0.0433 -1.33439,1.16597 -2.14916,1.71331 -0.50859,0.34165 -3.90971,2.26427 -5.09273,2.92855 -0.6967,0.3912 -1.75139,0.78911 -2.37348,0.78911 -0.41201,0 -0.80024,-0.0384 -1.0533,-0.21039 z"
         style="fill:#ff0000;stroke:#ff0000;stroke-width:0.0941381" />
      <path
         transform="matrix(0.26458333,0,0,0.26458333,-220.99028,-30.898094)"
         sodipodi:nodetypes="ccsssssscssssscsssssssssssscssssssssscc"
         id="path816-8-7"
         d="m -495.08094,262.66097 c -1.76582,-0.0976 -2.45865,-0.0906 -3.16088,-0.35994 0.20825,-0.80761 0.14388,-0.49787 0.24458,-1.0135 0.12221,-0.62544 0.169,-1.48125 0.14057,-2.57106 -0.0404,-1.54835 -0.0638,-1.67662 -0.44896,-2.45896 -0.69078,-1.40319 -1.87997,-2.29195 -4.52531,-3.3821 -0.58438,-0.24082 -1.64814,-0.72474 -2.36392,-1.07537 -0.76178,-0.37316 -1.47168,-0.63751 -1.71202,-0.63751 h -0.4106 l 0.25003,-0.71875 c 0.60981,-1.75299 1.11475,-4.72059 1.15385,-6.78125 0.0176,-0.93007 -0.0227,-1.14985 -0.32402,-1.76333 -0.19189,-0.39074 -0.79267,-1.18019 -1.3578,-1.78422 -1.46795,-1.56898 -2.38465,-2.04412 -4.21527,-2.18483 l -1.04224,-0.0801 1.54224,-0.99779 c 0.84824,-0.54879 1.87413,-1.30817 2.27976,-1.6875 1.69906,-1.58892 3.78826,-5.62387 4.6935,-9.06471 1.2971,-4.93037 0.5455,-8.50751 -2.08176,-9.90782 -2.82905,-1.50787 -8.2053,-1.67405 -13.22567,-0.40881 -2.15848,0.54399 -3.65996,1.22398 -5.16706,2.28507 -0.33329,0.23466 -1.42701,1.0261 -1.45027,1.00284 -0.0232,-0.0232 3.87306,-6.2532 8.0316,-13.16123 5.71897,-9.50014 7.45362,-12.51053 7.85055,-12.86482 0.28863,-0.25763 0.94039,-0.74053 0.99343,-0.74071 0.053,-1.9e-4 0.41139,0.38269 0.8396,0.71845 1.37149,1.07537 3.4764,2.3792 5.40242,3.34638 l 1.88162,0.88552 0.25209,-0.59735 c 0.12998,-0.30799 0.23649,0.0746 6.10601,4.11951 41.39326,28.52543 57.34172,39.30593 57.41131,39.41123 0.19288,0.29183 -2.29644,1.02113 -4.47636,1.3632 -0.83868,0.1316 -2.65848,0.41804 -4.21484,0.57824 -3.38397,0.34834 -4.8814,0.65759 -6.78359,1.27896 -3.47051,1.13367 -5.51677,2.59412 -10.87521,7.26638 -3.12461,2.72449 -5.03497,4.12434 -7.46734,5.67044 -6.03944,3.83886 -10.96852,5.89064 -14.04693,6.34023 -1.0318,0.15068 -7.14078,0.118 -9.72311,-0.025 z"
         style="fill:#ff0000;stroke:#ff0000;stroke-width:0.125" />
    </g>
  </g>
</svg>
