<?xml version="1.0" encoding="UTF-8" standalone="no"?>
<svg
   xmlns:ns0="http://www.iki.fi/pav/software/textext/"
   xmlns:dc="http://purl.org/dc/elements/1.1/"
   xmlns:cc="http://creativecommons.org/ns#"
   xmlns:rdf="http://www.w3.org/1999/02/22-rdf-syntax-ns#"
   xmlns:svg="http://www.w3.org/2000/svg"
   xmlns="http://www.w3.org/2000/svg"
   xmlns:sodipodi="http://sodipodi.sourceforge.net/DTD/sodipodi-0.dtd"
   xmlns:inkscape="http://www.inkscape.org/namespaces/inkscape"
   inkscape:export-ydpi="115.295"
   inkscape:export-xdpi="115.295"
   inkscape:export-filename="/home/thill/Documents/lectures/measurements_lectures/time_varying_circuits/time_varying_circuits_topic2/temp_versus_time.png"
   width="118.02114mm"
   height="70.169014mm"
   viewBox="0 0 118.02114 70.169014"
   version="1.1"
   id="svg3962"
   inkscape:version="1.0 (1.0+r73+1)"
   sodipodi:docname="temp_versus_time.svg">
  <defs
     id="defs3956">
    <marker
       inkscape:isstock="true"
       style="overflow:visible"
       id="marker7345"
       refX="0"
       refY="0"
       orient="auto"
       inkscape:stockid="Arrow1Lend">
      <path
         transform="matrix(-0.8,0,0,-0.8,-10,0)"
         style="fill:#000000;fill-opacity:1;fill-rule:evenodd;stroke:#000000;stroke-width:1pt;stroke-opacity:1"
         d="M 0,0 5,-5 -12.5,0 5,5 Z"
         id="path7343" />
    </marker>
    <marker
       inkscape:isstock="true"
       style="overflow:visible"
       id="Arrow1Lend"
       refX="0"
       refY="0"
       orient="auto"
       inkscape:stockid="Arrow1Lend">
      <path
         transform="matrix(-0.8,0,0,-0.8,-10,0)"
         style="fill:#000000;fill-opacity:1;fill-rule:evenodd;stroke:#000000;stroke-width:1pt;stroke-opacity:1"
         d="M 0,0 5,-5 -12.5,0 5,5 Z"
         id="path6471" />
    </marker>
    <marker
       inkscape:isstock="true"
       style="overflow:visible"
       id="marker6760"
       refX="0"
       refY="0"
       orient="auto"
       inkscape:stockid="Arrow1Mend">
      <path
         transform="matrix(-0.4,0,0,-0.4,-4,0)"
         style="fill:#000000;fill-opacity:1;fill-rule:evenodd;stroke:#000000;stroke-width:1pt;stroke-opacity:1"
         d="M 0,0 5,-5 -12.5,0 5,5 Z"
         id="path6758" />
    </marker>
    <marker
       inkscape:isstock="true"
       style="overflow:visible"
       id="Arrow1Mend"
       refX="0"
       refY="0"
       orient="auto"
       inkscape:stockid="Arrow1Mend">
      <path
         transform="matrix(-0.4,0,0,-0.4,-4,0)"
         style="fill:#000000;fill-opacity:1;fill-rule:evenodd;stroke:#000000;stroke-width:1pt;stroke-opacity:1"
         d="M 0,0 5,-5 -12.5,0 5,5 Z"
         id="path6477" />
    </marker>
    <g
       id="id-0a2e701b-8e9b-4dec-ae91-e40374cb5131-6">
      <symbol
         overflow="visible"
         id="id-118f0612-72b2-4c22-99a2-483c1122c3eb-2">
        <path
           style="stroke:none"
           d=""
           id="id-686531d7-3100-4f2c-b78b-233af8227b50-6" />
      </symbol>
      <symbol
         overflow="visible"
         id="id-3e4aed4d-7b75-4c29-ad47-f98116f69df3-1">
        <path
           style="stroke:none"
           d="m 2.046875,-3.984375 h 0.9375 c 0.203125,0 0.3125,0 0.3125,-0.203125 0,-0.109375 -0.109375,-0.109375 -0.28125,-0.109375 h -0.875 C 2.5,-5.71875 2.546875,-5.90625 2.546875,-5.96875 c 0,-0.171875 -0.125,-0.265625 -0.296875,-0.265625 -0.03125,0 -0.3125,0 -0.390625,0.359375 L 1.46875,-4.296875 h -0.9375 c -0.203125,0 -0.296875,0 -0.296875,0.1875 0,0.125 0.078125,0.125 0.28125,0.125 h 0.875 C 0.671875,-1.15625 0.625,-0.984375 0.625,-0.8125 0.625,-0.265625 1,0.109375 1.546875,0.109375 2.5625,0.109375 3.125,-1.34375 3.125,-1.421875 3.125,-1.53125 3.046875,-1.53125 3.015625,-1.53125 2.921875,-1.53125 2.90625,-1.5 2.859375,-1.390625 2.4375,-0.34375 1.90625,-0.109375 1.5625,-0.109375 c -0.203125,0 -0.3125,-0.125 -0.3125,-0.453125 0,-0.25 0.03125,-0.3125 0.0625,-0.484375 z m 0,0"
           id="id-e27d1d35-4067-4bbb-998c-d2b5c5c9150b-8" />
      </symbol>
    </g>
  </defs>
  <sodipodi:namedview
     fit-margin-bottom="0"
     fit-margin-right="0"
     fit-margin-left="0"
     fit-margin-top="0"
     inkscape:window-maximized="1"
     inkscape:window-y="0"
     inkscape:window-x="1680"
     inkscape:window-height="863"
     inkscape:window-width="1600"
     showgrid="false"
     inkscape:document-rotation="0"
     inkscape:current-layer="layer1"
     inkscape:document-units="mm"
     inkscape:cy="162.87936"
     inkscape:cx="215.26887"
     inkscape:zoom="1.979899"
     inkscape:pageshadow="2"
     inkscape:pageopacity="0.0"
     borderopacity="1.0"
     bordercolor="#666666"
     pagecolor="#ffffff"
     id="base" />
  <metadata
     id="metadata3959">
    <rdf:RDF>
      <cc:Work
         rdf:about="">
        <dc:format>image/svg+xml</dc:format>
        <dc:type
           rdf:resource="http://purl.org/dc/dcmitype/StillImage" />
        <dc:title></dc:title>
      </cc:Work>
    </rdf:RDF>
  </metadata>
  <g
     transform="translate(-21.919119,-86.230268)"
     id="layer1"
     inkscape:groupmode="layer"
     inkscape:label="Layer 1">
    <path
       sodipodi:nodetypes="cc"
       id="path3964"
       d="M 21.919119,153.54117 H 139.13242"
       style="fill:none;stroke:#000000;stroke-width:0.416121;stroke-linecap:butt;stroke-linejoin:miter;stroke-miterlimit:4;stroke-dasharray:none;stroke-opacity:1;marker-end:url(#marker7345)" />
    <path
       sodipodi:nodetypes="cc"
       id="path3966"
       d="M 25.090953,156.39928 V 92.036022"
       style="fill:none;stroke:#000000;stroke-width:0.416121;stroke-linecap:butt;stroke-linejoin:miter;stroke-miterlimit:4;stroke-dasharray:none;stroke-opacity:1;marker-end:url(#Arrow1Lend)" />
    <g
       inkscape:label="GridCartesian:X10:Y5"
       transform="matrix(2.0806065,0,0,2.0806065,25.238497,101.29111)"
       id="g5824">
      <g
         inkscape:label="MajorXGridlines"
         id="g5686">
        <path
           style="fill:none;stroke:#000000;stroke-width:0.079375"
           d="M 5,0 V 25"
           inkscape:label="MajorXDiv1"
           id="path5668" />
        <path
           style="fill:none;stroke:#000000;stroke-width:0.079375"
           d="M 10,0 V 25"
           inkscape:label="MajorXDiv2"
           id="path5670" />
        <path
           style="fill:none;stroke:#000000;stroke-width:0.079375"
           d="M 15,0 V 25"
           inkscape:label="MajorXDiv3"
           id="path5672" />
        <path
           style="fill:none;stroke:#000000;stroke-width:0.079375"
           d="M 20,0 V 25"
           inkscape:label="MajorXDiv4"
           id="path5674" />
        <path
           style="fill:none;stroke:#000000;stroke-width:0.079375"
           d="M 25,0 V 25"
           inkscape:label="MajorXDiv5"
           id="path5676" />
        <path
           style="fill:none;stroke:#000000;stroke-width:0.079375"
           d="M 30,0 V 25"
           inkscape:label="MajorXDiv6"
           id="path5678" />
        <path
           style="fill:none;stroke:#000000;stroke-width:0.079375"
           d="M 35,0 V 25"
           inkscape:label="MajorXDiv7"
           id="path5680" />
        <path
           style="fill:none;stroke:#000000;stroke-width:0.079375"
           d="M 40,0 V 25"
           inkscape:label="MajorXDiv8"
           id="path5682" />
        <path
           style="fill:none;stroke:#000000;stroke-width:0.079375"
           d="M 45,0 V 25"
           inkscape:label="MajorXDiv9"
           id="path5684" />
      </g>
      <g
         inkscape:label="MajorYGridlines"
         id="g5696">
        <path
           style="fill:none;stroke:#000000;stroke-width:0.079375"
           d="M 0,5 H 50"
           inkscape:label="MajorYDiv1"
           id="path5688" />
        <path
           style="fill:none;stroke:#000000;stroke-width:0.079375"
           d="M 0,10 H 50"
           inkscape:label="MajorYDiv2"
           id="path5690" />
        <path
           style="fill:none;stroke:#000000;stroke-width:0.079375"
           d="M 0,15 H 50"
           inkscape:label="MajorYDiv3"
           id="path5692" />
        <path
           style="fill:none;stroke:#000000;stroke-width:0.079375"
           d="M 0,20 H 50"
           inkscape:label="MajorYDiv4"
           id="path5694" />
      </g>
      <g
         inkscape:label="MinorXGridlines"
         id="g5778">
        <path
           style="fill:none;stroke:#000000;stroke-width:0.0264583"
           d="M 1,0 V 25"
           inkscape:label="MinorXDiv0:1"
           id="path5698" />
        <path
           style="fill:none;stroke:#000000;stroke-width:0.0264583"
           d="M 2,0 V 25"
           inkscape:label="MinorXDiv0:2"
           id="path5700" />
        <path
           style="fill:none;stroke:#000000;stroke-width:0.0264583"
           d="M 3,0 V 25"
           inkscape:label="MinorXDiv0:3"
           id="path5702" />
        <path
           style="fill:none;stroke:#000000;stroke-width:0.0264583"
           d="M 4,0 V 25"
           inkscape:label="MinorXDiv0:4"
           id="path5704" />
        <path
           style="fill:none;stroke:#000000;stroke-width:0.0264583"
           d="M 6,0 V 25"
           inkscape:label="MinorXDiv1:1"
           id="path5706" />
        <path
           style="fill:none;stroke:#000000;stroke-width:0.0264583"
           d="M 7,0 V 25"
           inkscape:label="MinorXDiv1:2"
           id="path5708" />
        <path
           style="fill:none;stroke:#000000;stroke-width:0.0264583"
           d="M 8,0 V 25"
           inkscape:label="MinorXDiv1:3"
           id="path5710" />
        <path
           style="fill:none;stroke:#000000;stroke-width:0.0264583"
           d="M 9,0 V 25"
           inkscape:label="MinorXDiv1:4"
           id="path5712" />
        <path
           style="fill:none;stroke:#000000;stroke-width:0.0264583"
           d="M 11,0 V 25"
           inkscape:label="MinorXDiv2:1"
           id="path5714" />
        <path
           style="fill:none;stroke:#000000;stroke-width:0.0264583"
           d="M 12,0 V 25"
           inkscape:label="MinorXDiv2:2"
           id="path5716" />
        <path
           style="fill:none;stroke:#000000;stroke-width:0.0264583"
           d="M 13,0 V 25"
           inkscape:label="MinorXDiv2:3"
           id="path5718" />
        <path
           style="fill:none;stroke:#000000;stroke-width:0.0264583"
           d="M 14,0 V 25"
           inkscape:label="MinorXDiv2:4"
           id="path5720" />
        <path
           style="fill:none;stroke:#000000;stroke-width:0.0264583"
           d="M 16,0 V 25"
           inkscape:label="MinorXDiv3:1"
           id="path5722" />
        <path
           style="fill:none;stroke:#000000;stroke-width:0.0264583"
           d="M 17,0 V 25"
           inkscape:label="MinorXDiv3:2"
           id="path5724" />
        <path
           style="fill:none;stroke:#000000;stroke-width:0.0264583"
           d="M 18,0 V 25"
           inkscape:label="MinorXDiv3:3"
           id="path5726" />
        <path
           style="fill:none;stroke:#000000;stroke-width:0.0264583"
           d="M 19,0 V 25"
           inkscape:label="MinorXDiv3:4"
           id="path5728" />
        <path
           style="fill:none;stroke:#000000;stroke-width:0.0264583"
           d="M 21,0 V 25"
           inkscape:label="MinorXDiv4:1"
           id="path5730" />
        <path
           style="fill:none;stroke:#000000;stroke-width:0.0264583"
           d="M 22,0 V 25"
           inkscape:label="MinorXDiv4:2"
           id="path5732" />
        <path
           style="fill:none;stroke:#000000;stroke-width:0.0264583"
           d="M 23,0 V 25"
           inkscape:label="MinorXDiv4:3"
           id="path5734" />
        <path
           style="fill:none;stroke:#000000;stroke-width:0.0264583"
           d="M 24,0 V 25"
           inkscape:label="MinorXDiv4:4"
           id="path5736" />
        <path
           style="fill:none;stroke:#000000;stroke-width:0.0264583"
           d="M 26,0 V 25"
           inkscape:label="MinorXDiv5:1"
           id="path5738" />
        <path
           style="fill:none;stroke:#000000;stroke-width:0.0264583"
           d="M 27,0 V 25"
           inkscape:label="MinorXDiv5:2"
           id="path5740" />
        <path
           style="fill:none;stroke:#000000;stroke-width:0.0264583"
           d="M 28,0 V 25"
           inkscape:label="MinorXDiv5:3"
           id="path5742" />
        <path
           style="fill:none;stroke:#000000;stroke-width:0.0264583"
           d="M 29,0 V 25"
           inkscape:label="MinorXDiv5:4"
           id="path5744" />
        <path
           style="fill:none;stroke:#000000;stroke-width:0.0264583"
           d="M 31,0 V 25"
           inkscape:label="MinorXDiv6:1"
           id="path5746" />
        <path
           style="fill:none;stroke:#000000;stroke-width:0.0264583"
           d="M 32,0 V 25"
           inkscape:label="MinorXDiv6:2"
           id="path5748" />
        <path
           style="fill:none;stroke:#000000;stroke-width:0.0264583"
           d="M 33,0 V 25"
           inkscape:label="MinorXDiv6:3"
           id="path5750" />
        <path
           style="fill:none;stroke:#000000;stroke-width:0.0264583"
           d="M 34,0 V 25"
           inkscape:label="MinorXDiv6:4"
           id="path5752" />
        <path
           style="fill:none;stroke:#000000;stroke-width:0.0264583"
           d="M 36,0 V 25"
           inkscape:label="MinorXDiv7:1"
           id="path5754" />
        <path
           style="fill:none;stroke:#000000;stroke-width:0.0264583"
           d="M 37,0 V 25"
           inkscape:label="MinorXDiv7:2"
           id="path5756" />
        <path
           style="fill:none;stroke:#000000;stroke-width:0.0264583"
           d="M 38,0 V 25"
           inkscape:label="MinorXDiv7:3"
           id="path5758" />
        <path
           style="fill:none;stroke:#000000;stroke-width:0.0264583"
           d="M 39,0 V 25"
           inkscape:label="MinorXDiv7:4"
           id="path5760" />
        <path
           style="fill:none;stroke:#000000;stroke-width:0.0264583"
           d="M 41,0 V 25"
           inkscape:label="MinorXDiv8:1"
           id="path5762" />
        <path
           style="fill:none;stroke:#000000;stroke-width:0.0264583"
           d="M 42,0 V 25"
           inkscape:label="MinorXDiv8:2"
           id="path5764" />
        <path
           style="fill:none;stroke:#000000;stroke-width:0.0264583"
           d="M 43,0 V 25"
           inkscape:label="MinorXDiv8:3"
           id="path5766" />
        <path
           style="fill:none;stroke:#000000;stroke-width:0.0264583"
           d="M 44,0 V 25"
           inkscape:label="MinorXDiv8:4"
           id="path5768" />
        <path
           style="fill:none;stroke:#000000;stroke-width:0.0264583"
           d="M 46,0 V 25"
           inkscape:label="MinorXDiv9:1"
           id="path5770" />
        <path
           style="fill:none;stroke:#000000;stroke-width:0.0264583"
           d="M 47,0 V 25"
           inkscape:label="MinorXDiv9:2"
           id="path5772" />
        <path
           style="fill:none;stroke:#000000;stroke-width:0.0264583"
           d="M 48,0 V 25"
           inkscape:label="MinorXDiv9:3"
           id="path5774" />
        <path
           style="fill:none;stroke:#000000;stroke-width:0.0264583"
           d="M 49,0 V 25"
           inkscape:label="MinorXDiv9:4"
           id="path5776" />
      </g>
      <g
         inkscape:label="MinorYGridlines"
         id="g5820">
        <path
           style="fill:none;stroke:#000000;stroke-width:0.0264583"
           d="M 0,1 H 50"
           inkscape:label="MinorXYiv0:1"
           id="path5780" />
        <path
           style="fill:none;stroke:#000000;stroke-width:0.0264583"
           d="M 0,2 H 50"
           inkscape:label="MinorXYiv0:2"
           id="path5782" />
        <path
           style="fill:none;stroke:#000000;stroke-width:0.0264583"
           d="M 0,3 H 50"
           inkscape:label="MinorXYiv0:3"
           id="path5784" />
        <path
           style="fill:none;stroke:#000000;stroke-width:0.0264583"
           d="M 0,4 H 50"
           inkscape:label="MinorXYiv0:4"
           id="path5786" />
        <path
           style="fill:none;stroke:#000000;stroke-width:0.0264583"
           d="M 0,6 H 50"
           inkscape:label="MinorXYiv1:1"
           id="path5788" />
        <path
           style="fill:none;stroke:#000000;stroke-width:0.0264583"
           d="M 0,7 H 50"
           inkscape:label="MinorXYiv1:2"
           id="path5790" />
        <path
           style="fill:none;stroke:#000000;stroke-width:0.0264583"
           d="M 0,8 H 50"
           inkscape:label="MinorXYiv1:3"
           id="path5792" />
        <path
           style="fill:none;stroke:#000000;stroke-width:0.0264583"
           d="M 0,9 H 50"
           inkscape:label="MinorXYiv1:4"
           id="path5794" />
        <path
           style="fill:none;stroke:#000000;stroke-width:0.0264583"
           d="M 0,11 H 50"
           inkscape:label="MinorXYiv2:1"
           id="path5796" />
        <path
           style="fill:none;stroke:#000000;stroke-width:0.0264583"
           d="M 0,12 H 50"
           inkscape:label="MinorXYiv2:2"
           id="path5798" />
        <path
           style="fill:none;stroke:#000000;stroke-width:0.0264583"
           d="M 0,13 H 50"
           inkscape:label="MinorXYiv2:3"
           id="path5800" />
        <path
           style="fill:none;stroke:#000000;stroke-width:0.0264583"
           d="M 0,14 H 50"
           inkscape:label="MinorXYiv2:4"
           id="path5802" />
        <path
           style="fill:none;stroke:#000000;stroke-width:0.0264583"
           d="M 0,16 H 50"
           inkscape:label="MinorXYiv3:1"
           id="path5804" />
        <path
           style="fill:none;stroke:#000000;stroke-width:0.0264583"
           d="M 0,17 H 50"
           inkscape:label="MinorXYiv3:2"
           id="path5806" />
        <path
           style="fill:none;stroke:#000000;stroke-width:0.0264583"
           d="M 0,18 H 50"
           inkscape:label="MinorXYiv3:3"
           id="path5808" />
        <path
           style="fill:none;stroke:#000000;stroke-width:0.0264583"
           d="M 0,19 H 50"
           inkscape:label="MinorXYiv3:4"
           id="path5810" />
        <path
           style="fill:none;stroke:#000000;stroke-width:0.0264583"
           d="M 0,21 H 50"
           inkscape:label="MinorXYiv4:1"
           id="path5812" />
        <path
           style="fill:none;stroke:#000000;stroke-width:0.0264583"
           d="M 0,22 H 50"
           inkscape:label="MinorXYiv4:2"
           id="path5814" />
        <path
           style="fill:none;stroke:#000000;stroke-width:0.0264583"
           d="M 0,23 H 50"
           inkscape:label="MinorXYiv4:3"
           id="path5816" />
        <path
           style="fill:none;stroke:#000000;stroke-width:0.0264583"
           d="M 0,24 H 50"
           inkscape:label="MinorXYiv4:4"
           id="path5818" />
      </g>
      <rect
         x="0"
         y="0"
         width="50"
         height="25"
         style="fill:none;stroke:#000000;stroke-width:0.132292"
         inkscape:label="Border"
         id="rect5822" />
    </g>
    <g
       transform="matrix(1.05834,0,0,1.05834,135.17675,143.68113)"
       ns0:version="1.1.0"
       ns0:texconverter="pdflatex"
       ns0:pdfconverter="inkscape"
       ns0:text="$t$"
       ns0:preamble="/home/thill/.config/inkscape/extensions/textext/default_packages.tex"
       ns0:scale="3.0"
       ns0:alignment="middle center"
       ns0:inkscapeversion="1.0"
       ns0:jacobian_sqrt="1.05834"
       id="g7053">
      <defs
         id="id-762afe68-664c-419a-aa5e-10fcd62a0696">
        <g
           id="id-0a2e701b-8e9b-4dec-ae91-e40374cb5131">
          <symbol
             id="id-118f0612-72b2-4c22-99a2-483c1122c3eb"
             overflow="visible">
            <path
               id="id-686531d7-3100-4f2c-b78b-233af8227b50"
               d=""
               style="stroke:none" />
          </symbol>
          <symbol
             id="id-3e4aed4d-7b75-4c29-ad47-f98116f69df3"
             overflow="visible">
            <path
               id="id-e27d1d35-4067-4bbb-998c-d2b5c5c9150b"
               d="m 2.046875,-3.984375 h 0.9375 c 0.203125,0 0.3125,0 0.3125,-0.203125 0,-0.109375 -0.109375,-0.109375 -0.28125,-0.109375 h -0.875 C 2.5,-5.71875 2.546875,-5.90625 2.546875,-5.96875 c 0,-0.171875 -0.125,-0.265625 -0.296875,-0.265625 -0.03125,0 -0.3125,0 -0.390625,0.359375 L 1.46875,-4.296875 h -0.9375 c -0.203125,0 -0.296875,0 -0.296875,0.1875 0,0.125 0.078125,0.125 0.28125,0.125 h 0.875 C 0.671875,-1.15625 0.625,-0.984375 0.625,-0.8125 0.625,-0.265625 1,0.109375 1.546875,0.109375 2.5625,0.109375 3.125,-1.34375 3.125,-1.421875 3.125,-1.53125 3.046875,-1.53125 3.015625,-1.53125 2.921875,-1.53125 2.90625,-1.5 2.859375,-1.390625 2.4375,-0.34375 1.90625,-0.109375 1.5625,-0.109375 c -0.203125,0 -0.3125,-0.125 -0.3125,-0.453125 0,-0.25 0.03125,-0.3125 0.0625,-0.484375 z m 0,0"
               style="stroke:none" />
          </symbol>
        </g>
      </defs>
      <g
         transform="translate(-148.946,-128.531)"
         id="id-2ff0070d-07f5-4c5f-8842-503e3306a21f">
        <g
           id="id-564ae6e1-4483-4dba-a450-25e5417b5cf3"
           style="fill:#000000;fill-opacity:1">
          <g
             transform="translate(148.712,134.765)"
             id="g7049">
            <path
               id="id-dc17cb3c-0d64-43f8-948c-d00342a793e0"
               d="m 2.046875,-3.984375 h 0.9375 c 0.203125,0 0.3125,0 0.3125,-0.203125 0,-0.109375 -0.109375,-0.109375 -0.28125,-0.109375 h -0.875 C 2.5,-5.71875 2.546875,-5.90625 2.546875,-5.96875 c 0,-0.171875 -0.125,-0.265625 -0.296875,-0.265625 -0.03125,0 -0.3125,0 -0.390625,0.359375 L 1.46875,-4.296875 h -0.9375 c -0.203125,0 -0.296875,0 -0.296875,0.1875 0,0.125 0.078125,0.125 0.28125,0.125 h 0.875 C 0.671875,-1.15625 0.625,-0.984375 0.625,-0.8125 0.625,-0.265625 1,0.109375 1.546875,0.109375 2.5625,0.109375 3.125,-1.34375 3.125,-1.421875 3.125,-1.53125 3.046875,-1.53125 3.015625,-1.53125 2.921875,-1.53125 2.90625,-1.5 2.859375,-1.390625 2.4375,-0.34375 1.90625,-0.109375 1.5625,-0.109375 c -0.203125,0 -0.3125,-0.125 -0.3125,-0.453125 0,-0.25 0.03125,-0.3125 0.0625,-0.484375 z m 0,0"
               style="stroke:none" />
          </g>
        </g>
      </g>
    </g>
    <g
       transform="matrix(1.05834 0 0 1.05834 31.6892 88.833)"
       ns0:version="1.1.0"
       ns0:texconverter="pdflatex"
       ns0:pdfconverter="inkscape"
       ns0:text="$T$"
       ns0:preamble="/home/thill/.config/inkscape/extensions/textext/default_packages.tex"
       ns0:scale="3.0"
       ns0:alignment="middle center"
       ns0:inkscapeversion="1.0"
       ns0:jacobian_sqrt="1.05834"
       id="g7687">
      <defs
         id="id-94565e4e-3f46-458c-8b67-8f43e87c93ce">
        <g
           id="id-c2cb849b-7721-47fd-a230-b8960f500b42">
          <symbol
             id="id-77ebd127-7857-438a-bdb2-6c99b728c05b"
             overflow="visible">
            <path
               id="id-856a2a78-7c5d-4ff2-9e4b-3191c49a910f"
               d=""
               style="stroke:none" />
          </symbol>
          <symbol
             id="id-d3b3146c-43a4-447c-8b69-853b2dd1639d"
             overflow="visible">
            <path
               id="id-1dffa1c5-89a8-4ecc-a804-08c3252521be"
               d="m 4.25,-6.046875 c 0.078125,-0.28125 0.109375,-0.34375 0.234375,-0.375 0.09375,-0.015625 0.421875,-0.015625 0.625,-0.015625 1.015625,0 1.453125,0.03125 1.453125,0.8125 0,0.15625 -0.03125,0.546875 -0.078125,0.796875 0,0.046875 -0.03125,0.15625 -0.03125,0.1875 0,0.0625 0.03125,0.140625 0.125,0.140625 0.109375,0 0.125,-0.078125 0.15625,-0.234375 L 7,-6.46875 C 7.015625,-6.515625 7.015625,-6.609375 7.015625,-6.640625 7.015625,-6.75 6.921875,-6.75 6.75,-6.75 H 1.21875 c -0.234375,0 -0.25,0.015625 -0.328125,0.203125 l -0.59375,1.75 c 0,0.015625 -0.0625,0.15625 -0.0625,0.1875 0,0.046875 0.0625,0.109375 0.125,0.109375 0.09375,0 0.109375,-0.0625 0.171875,-0.21875 C 1.0625,-6.265625 1.328125,-6.4375 2.796875,-6.4375 H 3.1875 c 0.28125,0 0.28125,0.03125 0.28125,0.125 0,0.046875 -0.03125,0.171875 -0.046875,0.203125 L 2.09375,-0.78125 C 2,-0.421875 1.96875,-0.3125 0.90625,-0.3125 c -0.359375,0 -0.421875,0 -0.421875,0.1875 C 0.484375,0 0.59375,0 0.65625,0 c 0.265625,0 0.546875,-0.015625 0.8125,-0.015625 0.28125,0 0.578125,-0.015625 0.859375,-0.015625 0.28125,0 0.546875,0.015625 0.828125,0.015625 C 3.4375,-0.015625 3.734375,0 4.015625,0 c 0.09375,0 0.21875,0 0.21875,-0.203125 0,-0.109375 -0.078125,-0.109375 -0.34375,-0.109375 -0.234375,0 -0.375,0 -0.625,-0.015625 -0.296875,-0.03125 -0.375,-0.0625 -0.375,-0.21875 0,-0.015625 0,-0.0625 0.046875,-0.203125 z m 0,0"
               style="stroke:none" />
          </symbol>
        </g>
      </defs>
      <g
         transform="translate(-148.946, -128.015)"
         id="id-25c27e8c-6c53-411d-969b-89e65c3255db">
        <g
           id="id-e7ca78c8-7a59-4d5c-b5a0-3a99cda6dd13"
           style="fill:#000000;fill-opacity:1">
          <g
             transform="translate(148.712, 134.765)"
             id="g7683">
            <path
               id="id-59b35c8e-1129-4424-883b-98efc71a8840"
               d="m 4.25,-6.046875 c 0.078125,-0.28125 0.109375,-0.34375 0.234375,-0.375 0.09375,-0.015625 0.421875,-0.015625 0.625,-0.015625 1.015625,0 1.453125,0.03125 1.453125,0.8125 0,0.15625 -0.03125,0.546875 -0.078125,0.796875 0,0.046875 -0.03125,0.15625 -0.03125,0.1875 0,0.0625 0.03125,0.140625 0.125,0.140625 0.109375,0 0.125,-0.078125 0.15625,-0.234375 L 7,-6.46875 C 7.015625,-6.515625 7.015625,-6.609375 7.015625,-6.640625 7.015625,-6.75 6.921875,-6.75 6.75,-6.75 H 1.21875 c -0.234375,0 -0.25,0.015625 -0.328125,0.203125 l -0.59375,1.75 c 0,0.015625 -0.0625,0.15625 -0.0625,0.1875 0,0.046875 0.0625,0.109375 0.125,0.109375 0.09375,0 0.109375,-0.0625 0.171875,-0.21875 C 1.0625,-6.265625 1.328125,-6.4375 2.796875,-6.4375 H 3.1875 c 0.28125,0 0.28125,0.03125 0.28125,0.125 0,0.046875 -0.03125,0.171875 -0.046875,0.203125 L 2.09375,-0.78125 C 2,-0.421875 1.96875,-0.3125 0.90625,-0.3125 c -0.359375,0 -0.421875,0 -0.421875,0.1875 C 0.484375,0 0.59375,0 0.65625,0 c 0.265625,0 0.546875,-0.015625 0.8125,-0.015625 0.28125,0 0.578125,-0.015625 0.859375,-0.015625 0.28125,0 0.546875,0.015625 0.828125,0.015625 C 3.4375,-0.015625 3.734375,0 4.015625,0 c 0.09375,0 0.21875,0 0.21875,-0.203125 0,-0.109375 -0.078125,-0.109375 -0.34375,-0.109375 -0.234375,0 -0.375,0 -0.625,-0.015625 -0.296875,-0.03125 -0.375,-0.0625 -0.375,-0.21875 0,-0.015625 0,-0.0625 0.046875,-0.203125 z m 0,0"
               style="stroke:none" />
          </g>
        </g>
      </g>
    </g>
  </g>
</svg>
