<?xml version="1.0" encoding="UTF-8" standalone="no"?>
<svg
   xmlns:ns0="http://www.iki.fi/pav/software/textext/"
   xmlns:dc="http://purl.org/dc/elements/1.1/"
   xmlns:cc="http://creativecommons.org/ns#"
   xmlns:rdf="http://www.w3.org/1999/02/22-rdf-syntax-ns#"
   xmlns:svg="http://www.w3.org/2000/svg"
   xmlns="http://www.w3.org/2000/svg"
   xmlns:sodipodi="http://sodipodi.sourceforge.net/DTD/sodipodi-0.dtd"
   xmlns:inkscape="http://www.inkscape.org/namespaces/inkscape"
   width="210mm"
   height="297mm"
   viewBox="0 0 210 297"
   version="1.1"
   id="svg3962"
   inkscape:version="1.0 (1.0+r73+1)"
   sodipodi:docname="time_axis.svg">
  <defs
     id="defs3956">
    <marker
       inkscape:isstock="true"
       style="overflow:visible;"
       id="marker7345"
       refX="0.0"
       refY="0.0"
       orient="auto"
       inkscape:stockid="Arrow1Lend">
      <path
         transform="scale(0.8) rotate(180) translate(12.5,0)"
         style="fill-rule:evenodd;stroke:#000000;stroke-width:1pt;stroke-opacity:1;fill:#000000;fill-opacity:1"
         d="M 0.0,0.0 L 5.0,-5.0 L -12.5,0.0 L 5.0,5.0 L 0.0,0.0 z "
         id="path7343" />
    </marker>
    <marker
       inkscape:isstock="true"
       style="overflow:visible;"
       id="Arrow1Lend"
       refX="0.0"
       refY="0.0"
       orient="auto"
       inkscape:stockid="Arrow1Lend">
      <path
         transform="scale(0.8) rotate(180) translate(12.5,0)"
         style="fill-rule:evenodd;stroke:#000000;stroke-width:1pt;stroke-opacity:1;fill:#000000;fill-opacity:1"
         d="M 0.0,0.0 L 5.0,-5.0 L -12.5,0.0 L 5.0,5.0 L 0.0,0.0 z "
         id="path6471" />
    </marker>
    <marker
       inkscape:isstock="true"
       style="overflow:visible;"
       id="marker6760"
       refX="0.0"
       refY="0.0"
       orient="auto"
       inkscape:stockid="Arrow1Mend">
      <path
         transform="scale(0.4) rotate(180) translate(10,0)"
         style="fill-rule:evenodd;stroke:#000000;stroke-width:1pt;stroke-opacity:1;fill:#000000;fill-opacity:1"
         d="M 0.0,0.0 L 5.0,-5.0 L -12.5,0.0 L 5.0,5.0 L 0.0,0.0 z "
         id="path6758" />
    </marker>
    <marker
       inkscape:isstock="true"
       style="overflow:visible;"
       id="Arrow1Mend"
       refX="0.0"
       refY="0.0"
       orient="auto"
       inkscape:stockid="Arrow1Mend">
      <path
         transform="scale(0.4) rotate(180) translate(10,0)"
         style="fill-rule:evenodd;stroke:#000000;stroke-width:1pt;stroke-opacity:1;fill:#000000;fill-opacity:1"
         d="M 0.0,0.0 L 5.0,-5.0 L -12.5,0.0 L 5.0,5.0 L 0.0,0.0 z "
         id="path6477" />
    </marker>
    <g
       id="id-0a2e701b-8e9b-4dec-ae91-e40374cb5131-6">
      <symbol
         overflow="visible"
         id="id-118f0612-72b2-4c22-99a2-483c1122c3eb-2">
        <path
           style="stroke:none"
           d=""
           id="id-686531d7-3100-4f2c-b78b-233af8227b50-6" />
      </symbol>
      <symbol
         overflow="visible"
         id="id-3e4aed4d-7b75-4c29-ad47-f98116f69df3-1">
        <path
           style="stroke:none"
           d="m 2.046875,-3.984375 h 0.9375 c 0.203125,0 0.3125,0 0.3125,-0.203125 0,-0.109375 -0.109375,-0.109375 -0.28125,-0.109375 h -0.875 C 2.5,-5.71875 2.546875,-5.90625 2.546875,-5.96875 c 0,-0.171875 -0.125,-0.265625 -0.296875,-0.265625 -0.03125,0 -0.3125,0 -0.390625,0.359375 L 1.46875,-4.296875 h -0.9375 c -0.203125,0 -0.296875,0 -0.296875,0.1875 0,0.125 0.078125,0.125 0.28125,0.125 h 0.875 C 0.671875,-1.15625 0.625,-0.984375 0.625,-0.8125 0.625,-0.265625 1,0.109375 1.546875,0.109375 2.5625,0.109375 3.125,-1.34375 3.125,-1.421875 3.125,-1.53125 3.046875,-1.53125 3.015625,-1.53125 2.921875,-1.53125 2.90625,-1.5 2.859375,-1.390625 2.4375,-0.34375 1.90625,-0.109375 1.5625,-0.109375 c -0.203125,0 -0.3125,-0.125 -0.3125,-0.453125 0,-0.25 0.03125,-0.3125 0.0625,-0.484375 z m 0,0"
           id="id-e27d1d35-4067-4bbb-998c-d2b5c5c9150b-8" />
      </symbol>
    </g>
  </defs>
  <sodipodi:namedview
     inkscape:window-maximized="0"
     inkscape:window-y="27"
     inkscape:window-x="158"
     inkscape:window-height="872"
     inkscape:window-width="1427"
     showgrid="false"
     inkscape:document-rotation="0"
     inkscape:current-layer="layer1"
     inkscape:document-units="mm"
     inkscape:cy="298.50489"
     inkscape:cx="215.67529"
     inkscape:zoom="0.98994949"
     inkscape:pageshadow="2"
     inkscape:pageopacity="0.0"
     borderopacity="1.0"
     bordercolor="#666666"
     pagecolor="#ffffff"
     id="base" />
  <metadata
     id="metadata3959">
    <rdf:RDF>
      <cc:Work
         rdf:about="">
        <dc:format>image/svg+xml</dc:format>
        <dc:type
           rdf:resource="http://purl.org/dc/dcmitype/StillImage" />
        <dc:title />
      </cc:Work>
    </rdf:RDF>
  </metadata>
  <g
     id="layer1"
     inkscape:groupmode="layer"
     inkscape:label="Layer 1">
    <path
       sodipodi:nodetypes="cc"
       id="path3964"
       d="m 21.919119,153.54117 117.213301,0"
       style="fill:none;stroke:#000000;stroke-width:0.416121;stroke-linecap:butt;stroke-linejoin:miter;stroke-miterlimit:4;stroke-dasharray:none;stroke-opacity:1;marker-end:url(#marker7345)" />
    <path
       sodipodi:nodetypes="cc"
       id="path3966"
       d="m 25.090953,156.39928 0,-64.363258"
       style="fill:none;stroke:#000000;stroke-width:0.416121;stroke-linecap:butt;stroke-linejoin:miter;stroke-miterlimit:4;stroke-dasharray:none;stroke-opacity:1;marker-end:url(#Arrow1Lend)" />
    <g
       inkscape:label="GridCartesian:X10:Y5"
       transform="matrix(2.0806065,0,0,2.0806065,25.238497,101.29111)"
       id="g5824">
      <g
         inkscape:label="MajorXGridlines"
         id="g5686">
        <path
           style="fill:none;stroke:#000000;stroke-width:0.079375"
           d="M 5,0 V 25"
           inkscape:label="MajorXDiv1"
           id="path5668" />
        <path
           style="fill:none;stroke:#000000;stroke-width:0.079375"
           d="M 10,0 V 25"
           inkscape:label="MajorXDiv2"
           id="path5670" />
        <path
           style="fill:none;stroke:#000000;stroke-width:0.079375"
           d="M 15,0 V 25"
           inkscape:label="MajorXDiv3"
           id="path5672" />
        <path
           style="fill:none;stroke:#000000;stroke-width:0.079375"
           d="M 20,0 V 25"
           inkscape:label="MajorXDiv4"
           id="path5674" />
        <path
           style="fill:none;stroke:#000000;stroke-width:0.079375"
           d="M 25,0 V 25"
           inkscape:label="MajorXDiv5"
           id="path5676" />
        <path
           style="fill:none;stroke:#000000;stroke-width:0.079375"
           d="M 30,0 V 25"
           inkscape:label="MajorXDiv6"
           id="path5678" />
        <path
           style="fill:none;stroke:#000000;stroke-width:0.079375"
           d="M 35,0 V 25"
           inkscape:label="MajorXDiv7"
           id="path5680" />
        <path
           style="fill:none;stroke:#000000;stroke-width:0.079375"
           d="M 40,0 V 25"
           inkscape:label="MajorXDiv8"
           id="path5682" />
        <path
           style="fill:none;stroke:#000000;stroke-width:0.079375"
           d="M 45,0 V 25"
           inkscape:label="MajorXDiv9"
           id="path5684" />
      </g>
      <g
         inkscape:label="MajorYGridlines"
         id="g5696">
        <path
           style="fill:none;stroke:#000000;stroke-width:0.079375"
           d="M 0,5 H 50"
           inkscape:label="MajorYDiv1"
           id="path5688" />
        <path
           style="fill:none;stroke:#000000;stroke-width:0.079375"
           d="M 0,10 H 50"
           inkscape:label="MajorYDiv2"
           id="path5690" />
        <path
           style="fill:none;stroke:#000000;stroke-width:0.079375"
           d="M 0,15 H 50"
           inkscape:label="MajorYDiv3"
           id="path5692" />
        <path
           style="fill:none;stroke:#000000;stroke-width:0.079375"
           d="M 0,20 H 50"
           inkscape:label="MajorYDiv4"
           id="path5694" />
      </g>
      <g
         inkscape:label="MinorXGridlines"
         id="g5778">
        <path
           style="fill:none;stroke:#000000;stroke-width:0.0264583"
           d="M 1,0 V 25"
           inkscape:label="MinorXDiv0:1"
           id="path5698" />
        <path
           style="fill:none;stroke:#000000;stroke-width:0.0264583"
           d="M 2,0 V 25"
           inkscape:label="MinorXDiv0:2"
           id="path5700" />
        <path
           style="fill:none;stroke:#000000;stroke-width:0.0264583"
           d="M 3,0 V 25"
           inkscape:label="MinorXDiv0:3"
           id="path5702" />
        <path
           style="fill:none;stroke:#000000;stroke-width:0.0264583"
           d="M 4,0 V 25"
           inkscape:label="MinorXDiv0:4"
           id="path5704" />
        <path
           style="fill:none;stroke:#000000;stroke-width:0.0264583"
           d="M 6,0 V 25"
           inkscape:label="MinorXDiv1:1"
           id="path5706" />
        <path
           style="fill:none;stroke:#000000;stroke-width:0.0264583"
           d="M 7,0 V 25"
           inkscape:label="MinorXDiv1:2"
           id="path5708" />
        <path
           style="fill:none;stroke:#000000;stroke-width:0.0264583"
           d="M 8,0 V 25"
           inkscape:label="MinorXDiv1:3"
           id="path5710" />
        <path
           style="fill:none;stroke:#000000;stroke-width:0.0264583"
           d="M 9,0 V 25"
           inkscape:label="MinorXDiv1:4"
           id="path5712" />
        <path
           style="fill:none;stroke:#000000;stroke-width:0.0264583"
           d="M 11,0 V 25"
           inkscape:label="MinorXDiv2:1"
           id="path5714" />
        <path
           style="fill:none;stroke:#000000;stroke-width:0.0264583"
           d="M 12,0 V 25"
           inkscape:label="MinorXDiv2:2"
           id="path5716" />
        <path
           style="fill:none;stroke:#000000;stroke-width:0.0264583"
           d="M 13,0 V 25"
           inkscape:label="MinorXDiv2:3"
           id="path5718" />
        <path
           style="fill:none;stroke:#000000;stroke-width:0.0264583"
           d="M 14,0 V 25"
           inkscape:label="MinorXDiv2:4"
           id="path5720" />
        <path
           style="fill:none;stroke:#000000;stroke-width:0.0264583"
           d="M 16,0 V 25"
           inkscape:label="MinorXDiv3:1"
           id="path5722" />
        <path
           style="fill:none;stroke:#000000;stroke-width:0.0264583"
           d="M 17,0 V 25"
           inkscape:label="MinorXDiv3:2"
           id="path5724" />
        <path
           style="fill:none;stroke:#000000;stroke-width:0.0264583"
           d="M 18,0 V 25"
           inkscape:label="MinorXDiv3:3"
           id="path5726" />
        <path
           style="fill:none;stroke:#000000;stroke-width:0.0264583"
           d="M 19,0 V 25"
           inkscape:label="MinorXDiv3:4"
           id="path5728" />
        <path
           style="fill:none;stroke:#000000;stroke-width:0.0264583"
           d="M 21,0 V 25"
           inkscape:label="MinorXDiv4:1"
           id="path5730" />
        <path
           style="fill:none;stroke:#000000;stroke-width:0.0264583"
           d="M 22,0 V 25"
           inkscape:label="MinorXDiv4:2"
           id="path5732" />
        <path
           style="fill:none;stroke:#000000;stroke-width:0.0264583"
           d="M 23,0 V 25"
           inkscape:label="MinorXDiv4:3"
           id="path5734" />
        <path
           style="fill:none;stroke:#000000;stroke-width:0.0264583"
           d="M 24,0 V 25"
           inkscape:label="MinorXDiv4:4"
           id="path5736" />
        <path
           style="fill:none;stroke:#000000;stroke-width:0.0264583"
           d="M 26,0 V 25"
           inkscape:label="MinorXDiv5:1"
           id="path5738" />
        <path
           style="fill:none;stroke:#000000;stroke-width:0.0264583"
           d="M 27,0 V 25"
           inkscape:label="MinorXDiv5:2"
           id="path5740" />
        <path
           style="fill:none;stroke:#000000;stroke-width:0.0264583"
           d="M 28,0 V 25"
           inkscape:label="MinorXDiv5:3"
           id="path5742" />
        <path
           style="fill:none;stroke:#000000;stroke-width:0.0264583"
           d="M 29,0 V 25"
           inkscape:label="MinorXDiv5:4"
           id="path5744" />
        <path
           style="fill:none;stroke:#000000;stroke-width:0.0264583"
           d="M 31,0 V 25"
           inkscape:label="MinorXDiv6:1"
           id="path5746" />
        <path
           style="fill:none;stroke:#000000;stroke-width:0.0264583"
           d="M 32,0 V 25"
           inkscape:label="MinorXDiv6:2"
           id="path5748" />
        <path
           style="fill:none;stroke:#000000;stroke-width:0.0264583"
           d="M 33,0 V 25"
           inkscape:label="MinorXDiv6:3"
           id="path5750" />
        <path
           style="fill:none;stroke:#000000;stroke-width:0.0264583"
           d="M 34,0 V 25"
           inkscape:label="MinorXDiv6:4"
           id="path5752" />
        <path
           style="fill:none;stroke:#000000;stroke-width:0.0264583"
           d="M 36,0 V 25"
           inkscape:label="MinorXDiv7:1"
           id="path5754" />
        <path
           style="fill:none;stroke:#000000;stroke-width:0.0264583"
           d="M 37,0 V 25"
           inkscape:label="MinorXDiv7:2"
           id="path5756" />
        <path
           style="fill:none;stroke:#000000;stroke-width:0.0264583"
           d="M 38,0 V 25"
           inkscape:label="MinorXDiv7:3"
           id="path5758" />
        <path
           style="fill:none;stroke:#000000;stroke-width:0.0264583"
           d="M 39,0 V 25"
           inkscape:label="MinorXDiv7:4"
           id="path5760" />
        <path
           style="fill:none;stroke:#000000;stroke-width:0.0264583"
           d="M 41,0 V 25"
           inkscape:label="MinorXDiv8:1"
           id="path5762" />
        <path
           style="fill:none;stroke:#000000;stroke-width:0.0264583"
           d="M 42,0 V 25"
           inkscape:label="MinorXDiv8:2"
           id="path5764" />
        <path
           style="fill:none;stroke:#000000;stroke-width:0.0264583"
           d="M 43,0 V 25"
           inkscape:label="MinorXDiv8:3"
           id="path5766" />
        <path
           style="fill:none;stroke:#000000;stroke-width:0.0264583"
           d="M 44,0 V 25"
           inkscape:label="MinorXDiv8:4"
           id="path5768" />
        <path
           style="fill:none;stroke:#000000;stroke-width:0.0264583"
           d="M 46,0 V 25"
           inkscape:label="MinorXDiv9:1"
           id="path5770" />
        <path
           style="fill:none;stroke:#000000;stroke-width:0.0264583"
           d="M 47,0 V 25"
           inkscape:label="MinorXDiv9:2"
           id="path5772" />
        <path
           style="fill:none;stroke:#000000;stroke-width:0.0264583"
           d="M 48,0 V 25"
           inkscape:label="MinorXDiv9:3"
           id="path5774" />
        <path
           style="fill:none;stroke:#000000;stroke-width:0.0264583"
           d="M 49,0 V 25"
           inkscape:label="MinorXDiv9:4"
           id="path5776" />
      </g>
      <g
         inkscape:label="MinorYGridlines"
         id="g5820">
        <path
           style="fill:none;stroke:#000000;stroke-width:0.0264583"
           d="M 0,1 H 50"
           inkscape:label="MinorXYiv0:1"
           id="path5780" />
        <path
           style="fill:none;stroke:#000000;stroke-width:0.0264583"
           d="M 0,2 H 50"
           inkscape:label="MinorXYiv0:2"
           id="path5782" />
        <path
           style="fill:none;stroke:#000000;stroke-width:0.0264583"
           d="M 0,3 H 50"
           inkscape:label="MinorXYiv0:3"
           id="path5784" />
        <path
           style="fill:none;stroke:#000000;stroke-width:0.0264583"
           d="M 0,4 H 50"
           inkscape:label="MinorXYiv0:4"
           id="path5786" />
        <path
           style="fill:none;stroke:#000000;stroke-width:0.0264583"
           d="M 0,6 H 50"
           inkscape:label="MinorXYiv1:1"
           id="path5788" />
        <path
           style="fill:none;stroke:#000000;stroke-width:0.0264583"
           d="M 0,7 H 50"
           inkscape:label="MinorXYiv1:2"
           id="path5790" />
        <path
           style="fill:none;stroke:#000000;stroke-width:0.0264583"
           d="M 0,8 H 50"
           inkscape:label="MinorXYiv1:3"
           id="path5792" />
        <path
           style="fill:none;stroke:#000000;stroke-width:0.0264583"
           d="M 0,9 H 50"
           inkscape:label="MinorXYiv1:4"
           id="path5794" />
        <path
           style="fill:none;stroke:#000000;stroke-width:0.0264583"
           d="M 0,11 H 50"
           inkscape:label="MinorXYiv2:1"
           id="path5796" />
        <path
           style="fill:none;stroke:#000000;stroke-width:0.0264583"
           d="M 0,12 H 50"
           inkscape:label="MinorXYiv2:2"
           id="path5798" />
        <path
           style="fill:none;stroke:#000000;stroke-width:0.0264583"
           d="M 0,13 H 50"
           inkscape:label="MinorXYiv2:3"
           id="path5800" />
        <path
           style="fill:none;stroke:#000000;stroke-width:0.0264583"
           d="M 0,14 H 50"
           inkscape:label="MinorXYiv2:4"
           id="path5802" />
        <path
           style="fill:none;stroke:#000000;stroke-width:0.0264583"
           d="M 0,16 H 50"
           inkscape:label="MinorXYiv3:1"
           id="path5804" />
        <path
           style="fill:none;stroke:#000000;stroke-width:0.0264583"
           d="M 0,17 H 50"
           inkscape:label="MinorXYiv3:2"
           id="path5806" />
        <path
           style="fill:none;stroke:#000000;stroke-width:0.0264583"
           d="M 0,18 H 50"
           inkscape:label="MinorXYiv3:3"
           id="path5808" />
        <path
           style="fill:none;stroke:#000000;stroke-width:0.0264583"
           d="M 0,19 H 50"
           inkscape:label="MinorXYiv3:4"
           id="path5810" />
        <path
           style="fill:none;stroke:#000000;stroke-width:0.0264583"
           d="M 0,21 H 50"
           inkscape:label="MinorXYiv4:1"
           id="path5812" />
        <path
           style="fill:none;stroke:#000000;stroke-width:0.0264583"
           d="M 0,22 H 50"
           inkscape:label="MinorXYiv4:2"
           id="path5814" />
        <path
           style="fill:none;stroke:#000000;stroke-width:0.0264583"
           d="M 0,23 H 50"
           inkscape:label="MinorXYiv4:3"
           id="path5816" />
        <path
           style="fill:none;stroke:#000000;stroke-width:0.0264583"
           d="M 0,24 H 50"
           inkscape:label="MinorXYiv4:4"
           id="path5818" />
      </g>
      <rect
         x="0"
         y="0"
         width="50"
         height="25"
         style="fill:none;stroke:#000000;stroke-width:0.132292"
         inkscape:label="Border"
         id="rect5822" />
    </g>
    <g
       transform="matrix(1.05834,0,0,1.05834,135.17675,143.68113)"
       ns0:version="1.1.0"
       ns0:texconverter="pdflatex"
       ns0:pdfconverter="inkscape"
       ns0:text="$t$"
       ns0:preamble="/home/thill/.config/inkscape/extensions/textext/default_packages.tex"
       ns0:scale="3.0"
       ns0:alignment="middle center"
       ns0:inkscapeversion="1.0"
       ns0:jacobian_sqrt="1.05834"
       id="g7053">
      <defs
         id="id-762afe68-664c-419a-aa5e-10fcd62a0696">
        <g
           id="id-0a2e701b-8e9b-4dec-ae91-e40374cb5131">
          <symbol
             id="id-118f0612-72b2-4c22-99a2-483c1122c3eb"
             overflow="visible">
            <path
               id="id-686531d7-3100-4f2c-b78b-233af8227b50"
               d=""
               style="stroke:none" />
          </symbol>
          <symbol
             id="id-3e4aed4d-7b75-4c29-ad47-f98116f69df3"
             overflow="visible">
            <path
               id="id-e27d1d35-4067-4bbb-998c-d2b5c5c9150b"
               d="m 2.046875,-3.984375 h 0.9375 c 0.203125,0 0.3125,0 0.3125,-0.203125 0,-0.109375 -0.109375,-0.109375 -0.28125,-0.109375 h -0.875 C 2.5,-5.71875 2.546875,-5.90625 2.546875,-5.96875 c 0,-0.171875 -0.125,-0.265625 -0.296875,-0.265625 -0.03125,0 -0.3125,0 -0.390625,0.359375 L 1.46875,-4.296875 h -0.9375 c -0.203125,0 -0.296875,0 -0.296875,0.1875 0,0.125 0.078125,0.125 0.28125,0.125 h 0.875 C 0.671875,-1.15625 0.625,-0.984375 0.625,-0.8125 0.625,-0.265625 1,0.109375 1.546875,0.109375 2.5625,0.109375 3.125,-1.34375 3.125,-1.421875 3.125,-1.53125 3.046875,-1.53125 3.015625,-1.53125 2.921875,-1.53125 2.90625,-1.5 2.859375,-1.390625 2.4375,-0.34375 1.90625,-0.109375 1.5625,-0.109375 c -0.203125,0 -0.3125,-0.125 -0.3125,-0.453125 0,-0.25 0.03125,-0.3125 0.0625,-0.484375 z m 0,0"
               style="stroke:none" />
          </symbol>
        </g>
      </defs>
      <g
         transform="translate(-148.946,-128.531)"
         id="id-2ff0070d-07f5-4c5f-8842-503e3306a21f">
        <g
           id="id-564ae6e1-4483-4dba-a450-25e5417b5cf3"
           style="fill:#000000;fill-opacity:1">
          <g
             transform="translate(148.712,134.765)"
             id="g7049">
            <path
               id="id-dc17cb3c-0d64-43f8-948c-d00342a793e0"
               d="m 2.046875,-3.984375 h 0.9375 c 0.203125,0 0.3125,0 0.3125,-0.203125 0,-0.109375 -0.109375,-0.109375 -0.28125,-0.109375 h -0.875 C 2.5,-5.71875 2.546875,-5.90625 2.546875,-5.96875 c 0,-0.171875 -0.125,-0.265625 -0.296875,-0.265625 -0.03125,0 -0.3125,0 -0.390625,0.359375 L 1.46875,-4.296875 h -0.9375 c -0.203125,0 -0.296875,0 -0.296875,0.1875 0,0.125 0.078125,0.125 0.28125,0.125 h 0.875 C 0.671875,-1.15625 0.625,-0.984375 0.625,-0.8125 0.625,-0.265625 1,0.109375 1.546875,0.109375 2.5625,0.109375 3.125,-1.34375 3.125,-1.421875 3.125,-1.53125 3.046875,-1.53125 3.015625,-1.53125 2.921875,-1.53125 2.90625,-1.5 2.859375,-1.390625 2.4375,-0.34375 1.90625,-0.109375 1.5625,-0.109375 c -0.203125,0 -0.3125,-0.125 -0.3125,-0.453125 0,-0.25 0.03125,-0.3125 0.0625,-0.484375 z m 0,0"
               style="stroke:none" />
          </g>
        </g>
      </g>
    </g>
    <g
       transform="matrix(1.05834,0,0,1.05834,30.609557,86.230665)"
       ns0:version="1.1.0"
       ns0:texconverter="pdflatex"
       ns0:pdfconverter="inkscape"
       ns0:text="$v_C(t)$"
       ns0:preamble="/home/thill/.config/inkscape/extensions/textext/default_packages.tex"
       ns0:scale="3.0"
       ns0:alignment="middle center"
       ns0:inkscapeversion="1.0"
       ns0:jacobian_sqrt="1.05834"
       id="g7266">
      <defs
         id="id-91b225ce-347b-4c0e-bada-d3715782b2c1">
        <g
           id="id-0a1c27d9-e9ba-4abd-a99f-58636192989d">
          <symbol
             id="id-4ef2dc27-7529-4011-ba13-392b79b9bddf"
             overflow="visible">
            <path
               id="id-6a14abe0-255c-417d-83f6-63cad25a56d4"
               d=""
               style="stroke:none" />
          </symbol>
          <symbol
             id="id-fd22f44a-b954-4ad5-8589-9224ba47a592"
             overflow="visible">
            <path
               id="id-b0770544-ad91-42f7-8455-94fdb8b3f6c5"
               d="m 4.671875,-3.703125 c 0,-0.546875 -0.265625,-0.703125 -0.4375,-0.703125 -0.25,0 -0.5,0.265625 -0.5,0.484375 0,0.125 0.046875,0.1875 0.15625,0.296875 0.21875,0.203125 0.34375,0.453125 0.34375,0.8125 0,0.421875 -0.609375,2.703125 -1.765625,2.703125 -0.515625,0 -0.75,-0.34375 -0.75,-0.875 0,-0.546875 0.28125,-1.28125 0.578125,-2.109375 0.078125,-0.171875 0.125,-0.3125 0.125,-0.5 0,-0.4375 -0.3125,-0.8125 -0.8125,-0.8125 -0.9375,0 -1.3125,1.453125 -1.3125,1.53125 0,0.109375 0.09375,0.109375 0.109375,0.109375 0.109375,0 0.109375,-0.03125 0.15625,-0.1875 0.296875,-1 0.71875,-1.234375 1.015625,-1.234375 0.078125,0 0.25,0 0.25,0.3125 0,0.25 -0.109375,0.53125 -0.171875,0.703125 -0.4375,1.15625 -0.5625,1.609375 -0.5625,2.046875 0,1.078125 0.875,1.234375 1.328125,1.234375 1.671875,0 2.25,-3.296875 2.25,-3.8125 z m 0,0"
               style="stroke:none" />
          </symbol>
          <symbol
             id="id-4700f181-a7b4-4ab9-a5e7-09256b2e80ed"
             overflow="visible">
            <path
               id="id-260216f7-50b0-4b44-a3da-93c5424081f1"
               d="m 2.046875,-3.984375 h 0.9375 c 0.203125,0 0.3125,0 0.3125,-0.203125 0,-0.109375 -0.109375,-0.109375 -0.28125,-0.109375 h -0.875 C 2.5,-5.71875 2.546875,-5.90625 2.546875,-5.96875 c 0,-0.171875 -0.125,-0.265625 -0.296875,-0.265625 -0.03125,0 -0.3125,0 -0.390625,0.359375 L 1.46875,-4.296875 h -0.9375 c -0.203125,0 -0.296875,0 -0.296875,0.1875 0,0.125 0.078125,0.125 0.28125,0.125 h 0.875 C 0.671875,-1.15625 0.625,-0.984375 0.625,-0.8125 0.625,-0.265625 1,0.109375 1.546875,0.109375 2.5625,0.109375 3.125,-1.34375 3.125,-1.421875 3.125,-1.53125 3.046875,-1.53125 3.015625,-1.53125 2.921875,-1.53125 2.90625,-1.5 2.859375,-1.390625 2.4375,-0.34375 1.90625,-0.109375 1.5625,-0.109375 c -0.203125,0 -0.3125,-0.125 -0.3125,-0.453125 0,-0.25 0.03125,-0.3125 0.0625,-0.484375 z m 0,0"
               style="stroke:none" />
          </symbol>
          <symbol
             id="id-c2c1e125-9c1d-4b63-a430-11a985accd27"
             overflow="visible">
            <path
               id="id-c9576e95-d251-49fd-b914-89fa7235eac1"
               d=""
               style="stroke:none" />
          </symbol>
          <symbol
             id="id-08ef290d-1d69-4851-80f2-9e5b0e333f9c"
             overflow="visible">
            <path
               id="id-ccb0f079-9e96-4b40-92a6-f7508d31c6e0"
               d="m 5.875,-4.8125 c 0,-0.03125 -0.015625,-0.09375 -0.09375,-0.09375 -0.046875,0 -0.0625,0.015625 -0.125,0.09375 l -0.5,0.53125 c -0.0625,-0.078125 -0.453125,-0.625 -1.3125,-0.625 -1.703125,0 -3.359375,1.5 -3.359375,3.078125 0,1.140625 0.890625,1.96875 2.140625,1.96875 0.375,0 1.046875,-0.078125 1.765625,-0.6875 0.546875,-0.46875 0.703125,-1.0625 0.703125,-1.125 0,-0.09375 -0.078125,-0.09375 -0.125,-0.09375 -0.078125,0 -0.09375,0.03125 -0.125,0.109375 -0.28125,0.953125 -1.25,1.546875 -2.09375,1.546875 -0.75,0 -1.5625,-0.40625 -1.5625,-1.5 0,-0.203125 0.046875,-1.296875 0.84375,-2.1875 0.484375,-0.53125 1.21875,-0.84375 1.875,-0.84375 0.8125,0 1.28125,0.578125 1.28125,1.359375 0,0.1875 -0.015625,0.25 -0.015625,0.28125 0,0.09375 0.09375,0.09375 0.125,0.09375 0.109375,0 0.109375,-0.015625 0.140625,-0.15625 z m 0,0"
               style="stroke:none" />
          </symbol>
          <symbol
             id="id-4e164c6e-6794-4a9e-ac70-d4267b69fd30"
             overflow="visible">
            <path
               id="id-558585db-5184-48b0-b500-00a0b9436add"
               d=""
               style="stroke:none" />
          </symbol>
          <symbol
             id="id-c56455cb-831d-4b2a-8b3c-87f0867d0901"
             overflow="visible">
            <path
               id="id-82e5cd3e-3d8b-4c82-bc32-70927c1ff8af"
               d="m 3.296875,2.390625 c 0,-0.03125 0,-0.046875 -0.171875,-0.21875 C 1.890625,0.921875 1.5625,-0.96875 1.5625,-2.5 c 0,-1.734375 0.375,-3.46875 1.609375,-4.703125 0.125,-0.125 0.125,-0.140625 0.125,-0.171875 0,-0.078125 -0.03125,-0.109375 -0.09375,-0.109375 -0.109375,0 -1,0.6875 -1.59375,1.953125 -0.5,1.09375 -0.625,2.203125 -0.625,3.03125 0,0.78125 0.109375,1.984375 0.65625,3.125 C 2.25,1.84375 3.09375,2.5 3.203125,2.5 c 0.0625,0 0.09375,-0.03125 0.09375,-0.109375 z m 0,0"
               style="stroke:none" />
          </symbol>
          <symbol
             id="id-589fd156-139f-41b0-af7b-e513a53072fc"
             overflow="visible">
            <path
               id="id-3fa2eb5c-21b1-495b-b86d-d739c8f15d60"
               d="m 2.875,-2.5 c 0,-0.765625 -0.109375,-1.96875 -0.65625,-3.109375 -0.59375,-1.21875 -1.453125,-1.875 -1.546875,-1.875 -0.0625,0 -0.109375,0.046875 -0.109375,0.109375 0,0.03125 0,0.046875 0.1875,0.234375 0.984375,0.984375 1.546875,2.5625 1.546875,4.640625 0,1.71875 -0.359375,3.46875 -1.59375,4.71875 C 0.5625,2.34375 0.5625,2.359375 0.5625,2.390625 0.5625,2.453125 0.609375,2.5 0.671875,2.5 0.765625,2.5 1.671875,1.8125 2.25,0.546875 2.765625,-0.546875 2.875,-1.65625 2.875,-2.5 Z m 0,0"
               style="stroke:none" />
          </symbol>
        </g>
      </defs>
      <g
         transform="translate(-149.009,-127.281)"
         id="id-d552f703-3036-4739-9056-6262ac89feb8">
        <g
           id="id-70d3fc79-0f98-49d4-8b3b-ef5bd4e6bcde"
           style="fill:#000000;fill-opacity:1">
          <g
             transform="translate(148.712,134.765)"
             id="g7246">
            <path
               id="id-fff685cf-1112-4790-8d67-d98135adc047"
               d="m 4.671875,-3.703125 c 0,-0.546875 -0.265625,-0.703125 -0.4375,-0.703125 -0.25,0 -0.5,0.265625 -0.5,0.484375 0,0.125 0.046875,0.1875 0.15625,0.296875 0.21875,0.203125 0.34375,0.453125 0.34375,0.8125 0,0.421875 -0.609375,2.703125 -1.765625,2.703125 -0.515625,0 -0.75,-0.34375 -0.75,-0.875 0,-0.546875 0.28125,-1.28125 0.578125,-2.109375 0.078125,-0.171875 0.125,-0.3125 0.125,-0.5 0,-0.4375 -0.3125,-0.8125 -0.8125,-0.8125 -0.9375,0 -1.3125,1.453125 -1.3125,1.53125 0,0.109375 0.09375,0.109375 0.109375,0.109375 0.109375,0 0.109375,-0.03125 0.15625,-0.1875 0.296875,-1 0.71875,-1.234375 1.015625,-1.234375 0.078125,0 0.25,0 0.25,0.3125 0,0.25 -0.109375,0.53125 -0.171875,0.703125 -0.4375,1.15625 -0.5625,1.609375 -0.5625,2.046875 0,1.078125 0.875,1.234375 1.328125,1.234375 1.671875,0 2.25,-3.296875 2.25,-3.8125 z m 0,0"
               style="stroke:none" />
          </g>
        </g>
        <g
           id="id-b38ad2a4-1537-4a01-9d3b-7ab4d6945f03"
           style="fill:#000000;fill-opacity:1">
          <g
             transform="translate(153.541,136.259)"
             id="g7250">
            <path
               id="id-6bbc3a6c-de5e-4873-b669-dbb1a78eb829"
               d="m 5.875,-4.8125 c 0,-0.03125 -0.015625,-0.09375 -0.09375,-0.09375 -0.046875,0 -0.0625,0.015625 -0.125,0.09375 l -0.5,0.53125 c -0.0625,-0.078125 -0.453125,-0.625 -1.3125,-0.625 -1.703125,0 -3.359375,1.5 -3.359375,3.078125 0,1.140625 0.890625,1.96875 2.140625,1.96875 0.375,0 1.046875,-0.078125 1.765625,-0.6875 0.546875,-0.46875 0.703125,-1.0625 0.703125,-1.125 0,-0.09375 -0.078125,-0.09375 -0.125,-0.09375 -0.078125,0 -0.09375,0.03125 -0.125,0.109375 -0.28125,0.953125 -1.25,1.546875 -2.09375,1.546875 -0.75,0 -1.5625,-0.40625 -1.5625,-1.5 0,-0.203125 0.046875,-1.296875 0.84375,-2.1875 0.484375,-0.53125 1.21875,-0.84375 1.875,-0.84375 0.8125,0 1.28125,0.578125 1.28125,1.359375 0,0.1875 -0.015625,0.25 -0.015625,0.28125 0,0.09375 0.09375,0.09375 0.125,0.09375 0.109375,0 0.109375,-0.015625 0.140625,-0.15625 z m 0,0"
               style="stroke:none" />
          </g>
        </g>
        <g
           id="id-4bd17e66-8bb1-4a67-9a8b-69898ac04280"
           style="fill:#000000;fill-opacity:1">
          <g
             transform="translate(160.242,134.765)"
             id="g7254">
            <path
               id="id-098d89a0-e43a-4171-84a3-5022287962da"
               d="m 3.296875,2.390625 c 0,-0.03125 0,-0.046875 -0.171875,-0.21875 C 1.890625,0.921875 1.5625,-0.96875 1.5625,-2.5 c 0,-1.734375 0.375,-3.46875 1.609375,-4.703125 0.125,-0.125 0.125,-0.140625 0.125,-0.171875 0,-0.078125 -0.03125,-0.109375 -0.09375,-0.109375 -0.109375,0 -1,0.6875 -1.59375,1.953125 -0.5,1.09375 -0.625,2.203125 -0.625,3.03125 0,0.78125 0.109375,1.984375 0.65625,3.125 C 2.25,1.84375 3.09375,2.5 3.203125,2.5 c 0.0625,0 0.09375,-0.03125 0.09375,-0.109375 z m 0,0"
               style="stroke:none" />
          </g>
        </g>
        <g
           id="id-c90dec27-9991-4737-9062-03722cd1ab24"
           style="fill:#000000;fill-opacity:1">
          <g
             transform="translate(164.117,134.765)"
             id="g7258">
            <path
               id="id-55e7a153-8c04-43df-a250-5656792df3ce"
               d="m 2.046875,-3.984375 h 0.9375 c 0.203125,0 0.3125,0 0.3125,-0.203125 0,-0.109375 -0.109375,-0.109375 -0.28125,-0.109375 h -0.875 C 2.5,-5.71875 2.546875,-5.90625 2.546875,-5.96875 c 0,-0.171875 -0.125,-0.265625 -0.296875,-0.265625 -0.03125,0 -0.3125,0 -0.390625,0.359375 L 1.46875,-4.296875 h -0.9375 c -0.203125,0 -0.296875,0 -0.296875,0.1875 0,0.125 0.078125,0.125 0.28125,0.125 h 0.875 C 0.671875,-1.15625 0.625,-0.984375 0.625,-0.8125 0.625,-0.265625 1,0.109375 1.546875,0.109375 2.5625,0.109375 3.125,-1.34375 3.125,-1.421875 3.125,-1.53125 3.046875,-1.53125 3.015625,-1.53125 2.921875,-1.53125 2.90625,-1.5 2.859375,-1.390625 2.4375,-0.34375 1.90625,-0.109375 1.5625,-0.109375 c -0.203125,0 -0.3125,-0.125 -0.3125,-0.453125 0,-0.25 0.03125,-0.3125 0.0625,-0.484375 z m 0,0"
               style="stroke:none" />
          </g>
        </g>
        <g
           id="id-c7630e0f-14c6-4b2a-b5fe-6ba312cde411"
           style="fill:#000000;fill-opacity:1">
          <g
             transform="translate(167.714,134.765)"
             id="g7262">
            <path
               id="id-bfcb6b64-17fb-44ff-b8e5-60e5223dd450"
               d="m 2.875,-2.5 c 0,-0.765625 -0.109375,-1.96875 -0.65625,-3.109375 -0.59375,-1.21875 -1.453125,-1.875 -1.546875,-1.875 -0.0625,0 -0.109375,0.046875 -0.109375,0.109375 0,0.03125 0,0.046875 0.1875,0.234375 0.984375,0.984375 1.546875,2.5625 1.546875,4.640625 0,1.71875 -0.359375,3.46875 -1.59375,4.71875 C 0.5625,2.34375 0.5625,2.359375 0.5625,2.390625 0.5625,2.453125 0.609375,2.5 0.671875,2.5 0.765625,2.5 1.671875,1.8125 2.25,0.546875 2.765625,-0.546875 2.875,-1.65625 2.875,-2.5 Z m 0,0"
               style="stroke:none" />
          </g>
        </g>
      </g>
    </g>
  </g>
</svg>
