<?xml version="1.0" encoding="UTF-8" standalone="no"?>
<svg
   xmlns:dc="http://purl.org/dc/elements/1.1/"
   xmlns:cc="http://creativecommons.org/ns#"
   xmlns:rdf="http://www.w3.org/1999/02/22-rdf-syntax-ns#"
   xmlns:svg="http://www.w3.org/2000/svg"
   xmlns="http://www.w3.org/2000/svg"
   xmlns:sodipodi="http://sodipodi.sourceforge.net/DTD/sodipodi-0.dtd"
   xmlns:inkscape="http://www.inkscape.org/namespaces/inkscape"
   inkscape:export-ydpi="115.295"
   inkscape:export-xdpi="115.295"
   inkscape:export-filename="/home/thill/Documents/lectures/measurements_lectures/strain_gauges/strain_gauges_topic3/quarter_half_full.png"
   sodipodi:docname="quarter_half_full.svg"
   inkscape:version="1.0 (1.0+r73+1)"
   version="1.1"
   id="svg2"
   height="713.85712"
   width="1692.4043">
  <sodipodi:namedview
     inkscape:document-rotation="0"
     fit-margin-bottom="0"
     fit-margin-right="0"
     fit-margin-left="0"
     fit-margin-top="0"
     inkscape:window-maximized="1"
     inkscape:window-y="177"
     inkscape:window-x="1752"
     inkscape:window-height="836"
     inkscape:window-width="1528"
     showgrid="false"
     inkscape:current-layer="layer1"
     inkscape:document-units="px"
     inkscape:cy="402.16368"
     inkscape:cx="789.92156"
     inkscape:zoom="0.35"
     inkscape:pageshadow="2"
     inkscape:pageopacity="0.0"
     borderopacity="1.0"
     bordercolor="#666666"
     pagecolor="#ffffff"
     id="base" />
  <defs
     id="defs4">



































</defs>
  <metadata
     id="metadata7">
    <rdf:RDF>
      <cc:Work
         rdf:about="">
        <dc:format>image/svg+xml</dc:format>
        <dc:type
           rdf:resource="http://purl.org/dc/dcmitype/StillImage" />
        <dc:title />
      </cc:Work>
    </rdf:RDF>
  </metadata>
  <g
     transform="translate(-21.642857,-50.433612)"
     id="layer1"
     inkscape:groupmode="layer"
     inkscape:label="Layer 1">
    <path
       sodipodi:nodetypes="cccc"
       inkscape:connector-curvature="0"
       id="path4098-8"
       d="m 1131.7858,50.933612 581.7614,0 0,711.428568 -582.4757,0"
       style="fill:none;stroke:#000000;stroke-width:1px;stroke-linecap:butt;stroke-linejoin:miter;stroke-opacity:1" />
    <path
       sodipodi:nodetypes="ccccccc"
       inkscape:connector-curvature="0"
       id="path2985-5"
       d="m 631.21873,334.87525 25.03217,-37.85714 h 40.51623 l 25.16217,37.85714 -25.14421,37.5 -39.8954,-0.12627 z"
       style="fill:none;stroke:#000000;stroke-width:2;stroke-linecap:butt;stroke-linejoin:miter;stroke-opacity:1;stroke-miterlimit:4;stroke-dasharray:none" />
    <path
       sodipodi:nodetypes="ccccccc"
       inkscape:connector-curvature="0"
       id="path2985-1-1"
       d="m 630.28435,228.6747 25.03217,-37.85714 h 40.51623 l 25.16217,37.85714 -25.14421,37.5 -39.8954,-0.12627 z"
       style="fill:none;stroke:#000000;stroke-width:2;stroke-linecap:butt;stroke-linejoin:miter;stroke-opacity:1;stroke-miterlimit:4;stroke-dasharray:none" />
    <path
       sodipodi:nodetypes="ccccccc"
       inkscape:connector-curvature="0"
       id="path2985-7-7"
       d="M 628.76913,119.57822 653.8013,81.721082 h 40.51623 l 25.16217,37.857138 -25.14421,37.5 -39.8954,-0.12627 z"
       style="fill:none;stroke:#000000;stroke-width:2;stroke-linecap:butt;stroke-linejoin:miter;stroke-opacity:1;stroke-miterlimit:4;stroke-dasharray:none" />
    <path
       sodipodi:nodetypes="ccccccc"
       inkscape:connector-curvature="0"
       id="path2985-4-1"
       d="m 633.31482,445.35242 25.03217,-37.85714 h 40.51623 l 25.16217,37.85714 -25.14421,37.5 -39.8954,-0.12627 z"
       style="fill:none;stroke:#000000;stroke-width:2;stroke-linecap:butt;stroke-linejoin:miter;stroke-opacity:1;stroke-miterlimit:4;stroke-dasharray:none" />
    <path
       sodipodi:nodetypes="ccccccc"
       inkscape:connector-curvature="0"
       id="path2985-0-1"
       d="m 633.81989,555.96412 25.03217,-37.85714 h 40.51623 l 25.16217,37.85714 -25.14421,37.5 -39.8954,-0.12627 z"
       style="fill:none;stroke:#000000;stroke-width:2;stroke-linecap:butt;stroke-linejoin:miter;stroke-opacity:1;stroke-miterlimit:4;stroke-dasharray:none" />
    <path
       sodipodi:nodetypes="ccccccc"
       inkscape:connector-curvature="0"
       id="path2985-0-9-5"
       d="m 634.32497,672.13167 25.03217,-37.85714 h 40.51623 l 25.16217,37.85714 -25.14421,37.5 -39.8954,-0.12627 z"
       style="fill:none;stroke:#000000;stroke-width:2;stroke-linecap:butt;stroke-linejoin:miter;stroke-opacity:1;stroke-miterlimit:4;stroke-dasharray:none" />
    <path
       style="font-style:normal;font-variant:normal;font-weight:normal;font-stretch:normal;letter-spacing:normal;word-spacing:normal;text-anchor:start;fill:#000000;stroke:#000000;stroke-width:1;stroke-linecap:butt;stroke-linejoin:miter;stroke-miterlimit:10.43299961;stroke-dasharray:none;stroke-dashoffset:0;stroke-opacity:1"
       inkscape:connector-curvature="0"
       d="m 568.63019,116.76 0.08,-0.52 1.36,-5.42 c 0.18,-0.68 0.22,-0.74 1.08,-0.74 h 1.9 c 1.66,0 2.72,0.54 2.72,1.9 0,0.78 -0.4,2.5 -1.18,3.2 -1,0.9 -2.18,1.06 -3.06,1.06 h -2.82 l -0.08,0.52 h 3.4 c 2.82,0 5.6,-2.06 5.6,-4.3 0,-1.54 -1.32,-3 -3.94,-3 h -6.44 c -0.38,0 -0.6,0 -0.6,0.38 0,0.24 0.16,0.24 0.56,0.24 0.26,0 0.62,0.02 0.86,0.04 0.32,0.04 0.44,0.1 0.44,0.32 0,0.06 -0.02,0.14 -0.08,0.36 l -2.66,10.7 c -0.2,0.78 -0.24,0.94 -1.82,0.94 -0.34,0 -0.56,0 -0.56,0.38 0,0.22 0.24,0.22 0.3,0.22 0.56,0 1.98,-0.06 2.54,-0.06 0.42,0 0.86,0.02 1.26,0.02 0.44,0 0.88,0.04 1.3,0.04 0.14,0 0.4,0 0.4,-0.38 0,-0.22 -0.18,-0.22 -0.56,-0.22 -0.74,0 -1.3,0 -1.3,-0.36 0,-0.12 0.04,-0.22 0.06,-0.34 z"
       id="path3056-7" />
    <path
       style="font-style:normal;font-variant:normal;font-weight:normal;font-stretch:normal;letter-spacing:normal;word-spacing:normal;text-anchor:start;fill:#000000;stroke:#000000;stroke-width:1;stroke-linecap:butt;stroke-linejoin:miter;stroke-miterlimit:10.43299961;stroke-dasharray:none;stroke-dashoffset:0;stroke-opacity:1"
       inkscape:connector-curvature="0"
       d="m 586.31019,118.48 h 5.56 c 0.28,0 0.66,0 0.66,-0.4 0,-0.4 -0.38,-0.4 -0.66,-0.4 h -5.56 v -5.58 c 0,-0.28 0,-0.66 -0.4,-0.66 -0.4,0 -0.4,0.38 -0.4,0.66 v 5.58 h -5.58 c -0.28,0 -0.66,0 -0.66,0.4 0,0.4 0.38,0.4 0.66,0.4 h 5.58 v 5.56 c 0,0.28 0,0.66 0.4,0.66 0.4,0 0.4,-0.38 0.4,-0.66 z"
       id="path3058-6" />
    <path
       id="path3088-4"
       d="m 569.77534,229.302 0.08,-0.52 1.36,-5.42 c 0.18,-0.68 0.22,-0.74 1.08,-0.74 h 1.9 c 1.66,0 2.72,0.54 2.72,1.9 0,0.78 -0.4,2.5 -1.18,3.2 -1,0.9 -2.18,1.06 -3.06,1.06 h -2.82 l -0.08,0.52 h 3.4 c 2.82,0 5.6,-2.06 5.6,-4.3 0,-1.54 -1.32,-3 -3.94,-3 h -6.44 c -0.38,0 -0.6,0 -0.6,0.38 0,0.24 0.16,0.24 0.56,0.24 0.26,0 0.62,0.02 0.86,0.04 0.32,0.04 0.44,0.1 0.44,0.32 0,0.06 -0.02,0.14 -0.08,0.36 l -2.66,10.7 c -0.2,0.78 -0.24,0.94 -1.82,0.94 -0.34,0 -0.56,0 -0.56,0.38 0,0.22 0.24,0.22 0.3,0.22 0.56,0 1.98,-0.06 2.54,-0.06 0.42,0 0.86,0.02 1.26,0.02 0.44,0 0.88,0.04 1.3,0.04 0.14,0 0.4,0 0.4,-0.38 0,-0.22 -0.18,-0.22 -0.56,-0.22 -0.74,0 -1.3,0 -1.3,-0.36 0,-0.12 0.04,-0.22 0.06,-0.34 z"
       inkscape:connector-curvature="0"
       style="font-style:normal;font-variant:normal;font-weight:normal;font-stretch:normal;letter-spacing:normal;word-spacing:normal;text-anchor:start;fill:#000000;stroke:#000000;stroke-width:1;stroke-linecap:butt;stroke-linejoin:miter;stroke-miterlimit:10.43299961;stroke-dasharray:none;stroke-dashoffset:0;stroke-opacity:1" />
    <path
       id="path3090-2"
       d="m 592.43534,231.022 h 0.06 0.06 l 0.08,-0.02 h 0.02 0.04 0.02 0.04 0.02 0.04 l 0.02,-0.02 h 0.02 0.04 l 0.02,-0.02 h 0.02 l 0.02,-0.02 0.02,-0.02 h 0.02 l 0.02,-0.02 0.02,-0.02 0.02,-0.02 0.02,-0.02 v 0 l 0.02,-0.02 v 0 -0.02 l 0.02,-0.02 v 0 -0.02 -0.02 0 l 0.02,-0.02 v -0.02 -0.02 -0.02 0 -0.02 -0.02 c 0,-0.4 -0.36,-0.4 -0.7,-0.4 h -10.78 c -0.34,0 -0.7,0 -0.7,0.4 0,0.4 0.36,0.4 0.7,0.4 z"
       inkscape:connector-curvature="0"
       style="font-style:normal;font-variant:normal;font-weight:normal;font-stretch:normal;letter-spacing:normal;word-spacing:normal;text-anchor:start;fill:#000000;stroke:#000000;stroke-width:1;stroke-linecap:butt;stroke-linejoin:miter;stroke-miterlimit:10.43299961;stroke-dasharray:none;stroke-dashoffset:0;stroke-opacity:1" />
    <path
       style="font-style:normal;font-variant:normal;font-weight:normal;font-stretch:normal;letter-spacing:normal;word-spacing:normal;text-anchor:start;fill:#000000;stroke:#000000;stroke-width:1;stroke-linecap:butt;stroke-linejoin:miter;stroke-miterlimit:10.43299961;stroke-dasharray:none;stroke-dashoffset:0;stroke-opacity:1"
       inkscape:connector-curvature="0"
       d="m 583.14626,326.8178 v 0 -0.02 0 0 -0.02 0 -0.02 0 0 l -0.02,-0.02 v 0 -0.02 0 0 l -0.02,-0.02 v 0 -0.02 h -0.02 v 0 -0.02 h -0.02 v 0 l -0.02,-0.02 v 0 h -0.02 v 0 0 l -0.02,-0.02 v 0 0 h -0.02 v 0 0 h -0.02 v 0 h -0.02 v 0 0 h -0.02 c -0.1,0 -0.12,0.02 -0.36,0.3 l -0.96,1.14 c -0.5,-0.94 -1.54,-1.44 -2.84,-1.44 -2.54,0 -4.92,2.28 -4.92,4.7 0,1.6 1.06,2.52 2.06,2.82 l 2.14,0.56 c 0.74,0.18 1.84,0.48 1.84,2.1 0,1.8 -1.64,3.66 -3.6,3.66 -1.28,0 -3.48,-0.42 -3.48,-2.9 0,-0.48 0.1,-0.96 0.12,-1.08 0.02,-0.06 0.04,-0.1 0.04,-0.14 0,-0.18 -0.14,-0.2 -0.24,-0.2 -0.1,0 -0.14,0.02 -0.2,0.08 -0.08,0.08 -1.2,4.62 -1.2,4.66 0,0.12 0.1,0.2 0.22,0.2 0.1,0 0.12,-0.02 0.36,-0.28 l 0.98,-1.14 c 0.86,1.16 2.2,1.42 3.36,1.42 2.72,0 5.08,-2.64 5.08,-5.1 0,-1.38 -0.68,-2.06 -0.98,-2.34 -0.46,-0.46 -0.76,-0.54 -2.54,-1 -0.44,-0.12 -1.16,-0.3 -1.34,-0.34 -0.54,-0.2 -1.22,-0.76 -1.22,-1.82 0,-1.62 1.6,-3.3 3.5,-3.3 1.66,0 2.86,0.86 2.86,3.08 0,0.64 -0.08,1 -0.08,1.12 0,0.02 0,0.2 0.24,0.2 0.2,0 0.22,-0.06 0.3,-0.4 z"
       id="path3126-2" />
    <path
       style="font-style:normal;font-variant:normal;font-weight:normal;font-stretch:normal;letter-spacing:normal;word-spacing:normal;text-anchor:start;fill:#000000;stroke:#000000;stroke-width:1;stroke-linecap:butt;stroke-linejoin:miter;stroke-miterlimit:10.43299961;stroke-dasharray:none;stroke-dashoffset:0;stroke-opacity:1"
       inkscape:connector-curvature="0"
       d="m 596.78626,336.0778 h 0.08 0.06 l 0.06,-0.02 h 0.02 0.04 0.04 0.02 0.02 0.04 l 0.02,-0.02 h 0.04 0.02 l 0.02,-0.02 h 0.02 l 0.04,-0.02 0.02,-0.02 h 0.02 l 0.02,-0.02 0.02,-0.02 v -0.02 l 0.02,-0.02 h 0.02 v -0.02 0 l 0.02,-0.02 v -0.02 0 -0.02 -0.02 h 0.02 v -0.02 -0.02 -0.02 -0.02 0 -0.02 -0.02 c 0,-0.4 -0.36,-0.4 -0.7,-0.4 h -10.78 c -0.34,0 -0.7,0 -0.7,0.4 0,0.4 0.36,0.4 0.7,0.4 z"
       id="path3128-2" />
    <path
       id="path3170-6"
       d="m 585.03156,436.6195 v 0 -0.02 0 0 -0.02 0 -0.02 0 0 l -0.02,-0.02 v 0 -0.02 0 0 l -0.02,-0.02 v 0 -0.02 h -0.02 v 0 -0.02 h -0.02 v 0 l -0.02,-0.02 v 0 h -0.02 v 0 0 l -0.02,-0.02 v 0 0 h -0.02 v 0 0 h -0.02 v 0 h -0.02 v 0 0 h -0.02 c -0.1,0 -0.12,0.02 -0.36,0.3 l -0.96,1.14 c -0.5,-0.94 -1.54,-1.44 -2.84,-1.44 -2.54,0 -4.92,2.28 -4.92,4.7 0,1.6 1.06,2.52 2.06,2.82 l 2.14,0.56 c 0.74,0.18 1.84,0.48 1.84,2.1 0,1.8 -1.64,3.66 -3.6,3.66 -1.28,0 -3.48,-0.42 -3.48,-2.9 0,-0.48 0.1,-0.96 0.12,-1.08 0.02,-0.06 0.04,-0.1 0.04,-0.14 0,-0.18 -0.14,-0.2 -0.24,-0.2 -0.1,0 -0.14,0.02 -0.2,0.08 -0.08,0.08 -1.2,4.62 -1.2,4.66 0,0.12 0.1,0.2 0.22,0.2 0.1,0 0.12,-0.02 0.36,-0.28 l 0.98,-1.14 c 0.86,1.16 2.2,1.42 3.36,1.42 2.72,0 5.08,-2.64 5.08,-5.1 0,-1.38 -0.68,-2.06 -0.98,-2.34 -0.46,-0.46 -0.76,-0.54 -2.54,-1 -0.44,-0.12 -1.16,-0.3 -1.34,-0.34 -0.54,-0.2 -1.22,-0.76 -1.22,-1.82 0,-1.62 1.6,-3.3 3.5,-3.3 1.66,0 2.86,0.86 2.86,3.08 0,0.64 -0.08,1 -0.08,1.12 0,0.02 0,0.2 0.24,0.2 0.2,0 0.22,-0.06 0.3,-0.4 z"
       inkscape:connector-curvature="0"
       style="font-style:normal;font-variant:normal;font-weight:normal;font-stretch:normal;letter-spacing:normal;word-spacing:normal;text-anchor:start;fill:#000000;stroke:#000000;stroke-width:1;stroke-linecap:butt;stroke-linejoin:miter;stroke-miterlimit:10.43299961;stroke-dasharray:none;stroke-dashoffset:0;stroke-opacity:1" />
    <path
       id="path3172-8"
       d="m 593.69156,445.8795 h 5.56 c 0.28,0 0.66,0 0.66,-0.4 0,-0.4 -0.38,-0.4 -0.66,-0.4 h -5.56 v -5.58 c 0,-0.28 0,-0.66 -0.4,-0.66 -0.4,0 -0.4,0.38 -0.4,0.66 v 5.58 h -5.58 c -0.28,0 -0.66,0 -0.66,0.4 0,0.4 0.38,0.4 0.66,0.4 h 5.58 v 5.56 c 0,0.28 0,0.66 0.4,0.66 0.4,0 0.4,-0.38 0.4,-0.66 z"
       inkscape:connector-curvature="0"
       style="font-style:normal;font-variant:normal;font-weight:normal;font-stretch:normal;letter-spacing:normal;word-spacing:normal;text-anchor:start;fill:#000000;stroke:#000000;stroke-width:1;stroke-linecap:butt;stroke-linejoin:miter;stroke-miterlimit:10.43299961;stroke-dasharray:none;stroke-dashoffset:0;stroke-opacity:1" />
    <path
       sodipodi:nodetypes="cccccccccccccc"
       inkscape:connector-curvature="0"
       id="path3267-5"
       d="m 870.34502,238.21709 v 11.11255 l 17.60703,10.16541 -36.60699,9.80882 36.04149,9.65728 -35.61155,9.5421 35.23715,9.03303 -36.26126,8.84028 36.63491,8.64845 -35.28227,8.75315 35.89854,8.45114 -37.40192,8.50363 20.74695,5.20877 v 14.05035"
       style="fill:none;stroke:#000000;stroke-width:2;stroke-linecap:butt;stroke-linejoin:miter;stroke-opacity:1;stroke-miterlimit:4;stroke-dasharray:none" />
    <path
       sodipodi:nodetypes="cccc"
       inkscape:connector-curvature="0"
       id="path4098-9"
       d="m 512.4195,51.770449 h 552.1428 V 763.19901 H 513.13379"
       style="fill:none;stroke:#000000;stroke-width:1px;stroke-linecap:butt;stroke-linejoin:miter;stroke-opacity:1" />
    <path
       sodipodi:nodetypes="cccccccccccccc"
       inkscape:connector-curvature="0"
       id="path3267-5-6"
       d="m 1007.392,236.59725 v 11.11255 l 17.6069,10.16541 -36.60676,9.80882 36.04126,9.65728 -35.61136,9.5421 35.23696,9.03303 -36.26106,8.84028 36.63476,8.64845 -35.28216,8.75315 35.89846,8.45114 -37.40186,8.50363 20.74696,5.20877 v 14.05035"
       style="fill:none;stroke:#000000;stroke-width:2;stroke-linecap:butt;stroke-linejoin:miter;stroke-opacity:1;stroke-miterlimit:4;stroke-dasharray:none" />
    <path
       inkscape:connector-curvature="0"
       id="path4320"
       d="M 727.06236,120.34187 H 1007.7766 V 233.19901"
       style="fill:none;stroke:#000000;stroke-width:2;stroke-linecap:butt;stroke-linejoin:miter;stroke-opacity:1;stroke-miterlimit:4;stroke-dasharray:none" />
    <path
       inkscape:connector-curvature="0"
       id="path4322"
       d="m 725.63378,228.19901 h 145 v 5.71429"
       style="fill:none;stroke:#000000;stroke-width:2;stroke-linecap:butt;stroke-linejoin:miter;stroke-opacity:1;stroke-miterlimit:4;stroke-dasharray:none" />
    <path
       inkscape:connector-curvature="0"
       id="path4324"
       d="M 874.20521,360.34187 H 1007.7766"
       style="fill:none;stroke:#000000;stroke-width:2;stroke-linecap:butt;stroke-linejoin:miter;stroke-opacity:1;stroke-miterlimit:4;stroke-dasharray:none" />
    <path
       inkscape:connector-curvature="0"
       id="path4326"
       d="m 938.49093,363.9133 v 83.57143 H 732.77664"
       style="fill:none;stroke:#000000;stroke-width:2;stroke-linecap:butt;stroke-linejoin:miter;stroke-opacity:1;stroke-miterlimit:4;stroke-dasharray:none" />
    <circle
       id="path4461-3"
       style="fill:#000000;stroke:#000000;stroke-width:0.502038;stroke-linecap:round;stroke-miterlimit:4;stroke-dasharray:3.01222, 3.01222;stroke-dashoffset:0"
       cx="871.76166"
       cy="361.41785"
       r="4.8410759" />
    <circle
       id="path4461-8"
       style="fill:#000000;stroke:#000000;stroke-width:0.502038;stroke-linecap:round;stroke-miterlimit:4;stroke-dasharray:3.01222, 3.01222;stroke-dashoffset:0"
       cx="1008.1323"
       cy="360.40768"
       r="4.8410759" />
    <circle
       id="path4461-9"
       style="fill:#000000;stroke:#000000;stroke-width:0.502038;stroke-linecap:round;stroke-miterlimit:4;stroke-dasharray:3.01222, 3.01222;stroke-dashoffset:0"
       cx="938.4317"
       cy="361.41785"
       r="4.8410759" />
    <circle
       id="path4461-34"
       style="fill:#000000;stroke:#000000;stroke-width:0.502038;stroke-linecap:round;stroke-miterlimit:4;stroke-dasharray:3.01222, 3.01222;stroke-dashoffset:0"
       cx="870.75146"
       cy="232.11832"
       r="4.8410759" />
    <circle
       id="path4461-4"
       style="fill:#000000;stroke:#000000;stroke-width:0.502038;stroke-linecap:round;stroke-miterlimit:4;stroke-dasharray:3.01222, 3.01222;stroke-dashoffset:0"
       cx="1007.1221"
       cy="232.1183"
       r="4.8410759" />
    <path
       sodipodi:nodetypes="ccccccc"
       inkscape:connector-curvature="0"
       id="path2985"
       d="m 140.94208,335.46698 25.03217,-37.85714 h 40.51623 l 25.16217,37.85714 -25.14421,37.5 -39.8954,-0.12627 z"
       style="fill:none;stroke:#000000;stroke-width:2;stroke-linecap:butt;stroke-linejoin:miter;stroke-opacity:1;stroke-miterlimit:4;stroke-dasharray:none" />
    <path
       sodipodi:nodetypes="ccccccc"
       inkscape:connector-curvature="0"
       id="path2985-1"
       d="m 140.0077,229.26643 25.03217,-37.85714 h 40.51623 l 25.16217,37.85714 -25.14421,37.5 -39.8954,-0.12627 z"
       style="fill:none;stroke:#000000;stroke-width:2;stroke-linecap:butt;stroke-linejoin:miter;stroke-opacity:1;stroke-miterlimit:4;stroke-dasharray:none" />
    <path
       sodipodi:nodetypes="ccccccc"
       inkscape:connector-curvature="0"
       id="path2985-7"
       d="m 138.49248,120.16995 25.03217,-37.857137 h 40.51623 l 25.16217,37.857137 -25.14421,37.5 -39.8954,-0.12627 z"
       style="fill:none;stroke:#000000;stroke-width:2;stroke-linecap:butt;stroke-linejoin:miter;stroke-opacity:1;stroke-miterlimit:4;stroke-dasharray:none" />
    <path
       sodipodi:nodetypes="ccccccc"
       inkscape:connector-curvature="0"
       id="path2985-4"
       d="m 143.03817,445.94415 25.03217,-37.85714 h 40.51623 l 25.16217,37.85714 -25.14421,37.5 -39.8954,-0.12627 z"
       style="fill:none;stroke:#000000;stroke-width:2;stroke-linecap:butt;stroke-linejoin:miter;stroke-opacity:1;stroke-miterlimit:4;stroke-dasharray:none" />
    <path
       sodipodi:nodetypes="ccccccc"
       inkscape:connector-curvature="0"
       id="path2985-0"
       d="m 143.54324,556.55585 25.03217,-37.85714 h 40.51623 l 25.16217,37.85714 -25.14421,37.5 -39.8954,-0.12627 z"
       style="fill:none;stroke:#000000;stroke-width:2;stroke-linecap:butt;stroke-linejoin:miter;stroke-opacity:1;stroke-miterlimit:4;stroke-dasharray:none" />
    <path
       sodipodi:nodetypes="ccccccc"
       inkscape:connector-curvature="0"
       id="path2985-0-9"
       d="m 144.04832,672.7234 25.03217,-37.85714 h 40.51623 l 25.16217,37.85714 -25.14421,37.5 -39.8954,-0.12627 z"
       style="fill:none;stroke:#000000;stroke-width:2;stroke-linecap:butt;stroke-linejoin:miter;stroke-opacity:1;stroke-miterlimit:4;stroke-dasharray:none" />
    <path
       style="font-style:normal;font-variant:normal;font-weight:normal;font-stretch:normal;letter-spacing:normal;word-spacing:normal;text-anchor:start;fill:#000000;stroke:#000000;stroke-width:1;stroke-linecap:butt;stroke-linejoin:miter;stroke-miterlimit:10.43299961;stroke-dasharray:none;stroke-dashoffset:0;stroke-opacity:1"
       inkscape:connector-curvature="0"
       d="m 78.35354,117.3517 0.08,-0.52 1.36,-5.42 c 0.18,-0.68 0.22,-0.74 1.08,-0.74 h 1.9 c 1.66,0 2.72,0.54 2.72,1.9 0,0.78 -0.4,2.5 -1.18,3.2 -1,0.9 -2.18,1.06 -3.06,1.06 h -2.82 l -0.08,0.52 h 3.4 c 2.82,0 5.6,-2.06 5.6,-4.3 0,-1.54 -1.32,-3 -3.94,-3 h -6.44 c -0.38,0 -0.6,0 -0.6,0.38 0,0.24 0.16,0.24 0.56,0.24 0.26,0 0.62,0.02 0.86,0.04 0.32,0.04 0.44,0.1 0.44,0.32 0,0.06 -0.02,0.14 -0.08,0.36 l -2.66,10.7 c -0.2,0.78 -0.24,0.94 -1.82,0.94 -0.34,0 -0.56,0 -0.56,0.38 0,0.22 0.24,0.22 0.3,0.22 0.56,0 1.98,-0.06 2.54,-0.06 0.42,0 0.86,0.02 1.26,0.02 0.44,0 0.88,0.04 1.3,0.04 0.14,0 0.4,0 0.4,-0.38 0,-0.22 -0.18,-0.22 -0.56,-0.22 -0.74,0 -1.3,0 -1.3,-0.36 0,-0.12 0.04,-0.22 0.06,-0.34 z"
       id="path3056" />
    <path
       style="font-style:normal;font-variant:normal;font-weight:normal;font-stretch:normal;letter-spacing:normal;word-spacing:normal;text-anchor:start;fill:#000000;stroke:#000000;stroke-width:1;stroke-linecap:butt;stroke-linejoin:miter;stroke-miterlimit:10.43299961;stroke-dasharray:none;stroke-dashoffset:0;stroke-opacity:1"
       inkscape:connector-curvature="0"
       d="m 96.03354,119.0717 h 5.56 c 0.28,0 0.66,0 0.66,-0.4 0,-0.4 -0.38,-0.4 -0.66,-0.4 h -5.56 v -5.58 c 0,-0.28 0,-0.66 -0.4,-0.66 -0.4,0 -0.4,0.38 -0.4,0.66 v 5.58 h -5.58 c -0.28,0 -0.66,0 -0.66,0.4 0,0.4 0.38,0.4 0.66,0.4 h 5.58 v 5.56 c 0,0.28 0,0.66 0.4,0.66 0.4,0 0.4,-0.38 0.4,-0.66 z"
       id="path3058" />
    <path
       id="path3088"
       d="m 79.49869,229.8937 0.08,-0.52 1.36,-5.42 c 0.18,-0.68 0.22,-0.74 1.08,-0.74 h 1.9 c 1.66,0 2.72,0.54 2.72,1.9 0,0.78 -0.4,2.5 -1.18,3.2 -1,0.9 -2.18,1.06 -3.06,1.06 h -2.82 l -0.08,0.52 h 3.4 c 2.82,0 5.6,-2.06 5.6,-4.3 0,-1.54 -1.32,-3 -3.94,-3 h -6.44 c -0.38,0 -0.6,0 -0.6,0.38 0,0.24 0.16,0.24 0.56,0.24 0.26,0 0.62,0.02 0.86,0.04 0.32,0.04 0.44,0.1 0.44,0.32 0,0.06 -0.02,0.14 -0.08,0.36 l -2.66,10.7 c -0.2,0.78 -0.24,0.94 -1.82,0.94 -0.34,0 -0.56,0 -0.56,0.38 0,0.22 0.24,0.22 0.3,0.22 0.56,0 1.98,-0.06 2.54,-0.06 0.42,0 0.86,0.02 1.26,0.02 0.44,0 0.88,0.04 1.3,0.04 0.14,0 0.4,0 0.4,-0.38 0,-0.22 -0.18,-0.22 -0.56,-0.22 -0.74,0 -1.3,0 -1.3,-0.36 0,-0.12 0.04,-0.22 0.06,-0.34 z"
       inkscape:connector-curvature="0"
       style="font-style:normal;font-variant:normal;font-weight:normal;font-stretch:normal;letter-spacing:normal;word-spacing:normal;text-anchor:start;fill:#000000;stroke:#000000;stroke-width:1;stroke-linecap:butt;stroke-linejoin:miter;stroke-miterlimit:10.43299961;stroke-dasharray:none;stroke-dashoffset:0;stroke-opacity:1" />
    <path
       id="path3090"
       d="m 102.15869,231.6137 h 0.06 0.06 l 0.08,-0.02 h 0.02 0.04 0.02 0.04 0.02 0.04 l 0.02,-0.02 h 0.02 0.04 l 0.02,-0.02 h 0.02 l 0.02,-0.02 0.02,-0.02 h 0.02 l 0.02,-0.02 0.02,-0.02 0.02,-0.02 0.02,-0.02 v 0 l 0.02,-0.02 v 0 -0.02 l 0.02,-0.02 v 0 -0.02 -0.02 0 l 0.02,-0.02 v -0.02 -0.02 -0.02 0 -0.02 -0.02 c 0,-0.4 -0.36,-0.4 -0.7,-0.4 h -10.78 c -0.34,0 -0.7,0 -0.7,0.4 0,0.4 0.36,0.4 0.7,0.4 z"
       inkscape:connector-curvature="0"
       style="font-style:normal;font-variant:normal;font-weight:normal;font-stretch:normal;letter-spacing:normal;word-spacing:normal;text-anchor:start;fill:#000000;stroke:#000000;stroke-width:1;stroke-linecap:butt;stroke-linejoin:miter;stroke-miterlimit:10.43299961;stroke-dasharray:none;stroke-dashoffset:0;stroke-opacity:1" />
    <path
       style="font-style:normal;font-variant:normal;font-weight:normal;font-stretch:normal;letter-spacing:normal;word-spacing:normal;text-anchor:start;fill:#000000;stroke:#000000;stroke-width:1;stroke-linecap:butt;stroke-linejoin:miter;stroke-miterlimit:10.43299961;stroke-dasharray:none;stroke-dashoffset:0;stroke-opacity:1"
       inkscape:connector-curvature="0"
       d="m 92.86961,327.4095 v 0 -0.02 0 0 -0.02 0 -0.02 0 0 l -0.02,-0.02 v 0 -0.02 0 0 l -0.02,-0.02 v 0 -0.02 h -0.02 v 0 -0.02 h -0.02 v 0 l -0.02,-0.02 v 0 h -0.02 v 0 0 l -0.02,-0.02 v 0 0 h -0.02 v 0 0 h -0.02 v 0 h -0.02 v 0 0 h -0.02 c -0.1,0 -0.12,0.02 -0.36,0.3 l -0.96,1.14 c -0.5,-0.94 -1.54,-1.44 -2.84,-1.44 -2.54,0 -4.92,2.28 -4.92,4.7 0,1.6 1.06,2.52 2.06,2.82 l 2.14,0.56 c 0.74,0.18 1.84,0.48 1.84,2.1 0,1.8 -1.64,3.66 -3.6,3.66 -1.28,0 -3.48,-0.42 -3.48,-2.9 0,-0.48 0.1,-0.96 0.12,-1.08 0.02,-0.06 0.04,-0.1 0.04,-0.14 0,-0.18 -0.14,-0.2 -0.24,-0.2 -0.1,0 -0.14,0.02 -0.2,0.08 -0.08,0.08 -1.2,4.62 -1.2,4.66 0,0.12 0.1,0.2 0.22,0.2 0.1,0 0.12,-0.02 0.36,-0.28 l 0.98,-1.14 c 0.86,1.16 2.2,1.42 3.36,1.42 2.72,0 5.08,-2.64 5.08,-5.1 0,-1.38 -0.68,-2.06 -0.98,-2.34 -0.46,-0.46 -0.76,-0.54 -2.54,-1 -0.44,-0.12 -1.16,-0.3 -1.34,-0.34 -0.54,-0.2 -1.22,-0.76 -1.22,-1.82 0,-1.62 1.6,-3.3 3.5,-3.3 1.66,0 2.86,0.86 2.86,3.08 0,0.64 -0.08,1 -0.08,1.12 0,0.02 0,0.2 0.24,0.2 0.2,0 0.22,-0.06 0.3,-0.4 z"
       id="path3126" />
    <path
       style="font-style:normal;font-variant:normal;font-weight:normal;font-stretch:normal;letter-spacing:normal;word-spacing:normal;text-anchor:start;fill:#000000;stroke:#000000;stroke-width:1;stroke-linecap:butt;stroke-linejoin:miter;stroke-miterlimit:10.43299961;stroke-dasharray:none;stroke-dashoffset:0;stroke-opacity:1"
       inkscape:connector-curvature="0"
       d="m 106.50961,336.6695 h 0.08 0.06 l 0.06,-0.02 h 0.02 0.04 0.04 0.02 0.02 0.04 l 0.02,-0.02 h 0.04 0.02 l 0.02,-0.02 h 0.02 l 0.04,-0.02 0.02,-0.02 h 0.02 l 0.02,-0.02 0.02,-0.02 v -0.02 l 0.02,-0.02 h 0.02 v -0.02 0 l 0.02,-0.02 v -0.02 0 -0.02 -0.02 h 0.02 v -0.02 -0.02 -0.02 -0.02 0 -0.02 -0.02 c 0,-0.4 -0.36,-0.4 -0.7,-0.4 h -10.78 c -0.34,0 -0.7,0 -0.7,0.4 0,0.4 0.36,0.4 0.7,0.4 z"
       id="path3128" />
    <path
       id="path3170"
       d="m 94.75491,437.2112 v 0 -0.02 0 0 -0.02 0 -0.02 0 0 l -0.02,-0.02 v 0 -0.02 0 0 l -0.02,-0.02 v 0 -0.02 h -0.02 v 0 -0.02 h -0.02 v 0 l -0.02,-0.02 v 0 h -0.02 v 0 0 l -0.02,-0.02 v 0 0 h -0.02 v 0 0 h -0.02 v 0 h -0.02 v 0 0 h -0.02 c -0.1,0 -0.12,0.02 -0.36,0.3 l -0.96,1.14 c -0.5,-0.94 -1.54,-1.44 -2.84,-1.44 -2.54,0 -4.92,2.28 -4.92,4.7 0,1.6 1.06,2.52 2.06,2.82 l 2.14,0.56 c 0.74,0.18 1.84,0.48 1.84,2.1 0,1.8 -1.64,3.66 -3.6,3.66 -1.28,0 -3.48,-0.42 -3.48,-2.9 0,-0.48 0.1,-0.96 0.12,-1.08 0.02,-0.06 0.04,-0.1 0.04,-0.14 0,-0.18 -0.14,-0.2 -0.24,-0.2 -0.1,0 -0.14,0.02 -0.2,0.08 -0.08,0.08 -1.2,4.62 -1.2,4.66 0,0.12 0.1,0.2 0.22,0.2 0.1,0 0.12,-0.02 0.36,-0.28 l 0.98,-1.14 c 0.86,1.16 2.2,1.42 3.36,1.42 2.72,0 5.08,-2.64 5.08,-5.1 0,-1.38 -0.68,-2.06 -0.98,-2.34 -0.46,-0.46 -0.76,-0.54 -2.54,-1 -0.44,-0.12 -1.16,-0.3 -1.34,-0.34 -0.54,-0.2 -1.22,-0.76 -1.22,-1.82 0,-1.62 1.6,-3.3 3.5,-3.3 1.66,0 2.86,0.86 2.86,3.08 0,0.64 -0.08,1 -0.08,1.12 0,0.02 0,0.2 0.24,0.2 0.2,0 0.22,-0.06 0.3,-0.4 z"
       inkscape:connector-curvature="0"
       style="font-style:normal;font-variant:normal;font-weight:normal;font-stretch:normal;letter-spacing:normal;word-spacing:normal;text-anchor:start;fill:#000000;stroke:#000000;stroke-width:1;stroke-linecap:butt;stroke-linejoin:miter;stroke-miterlimit:10.43299961;stroke-dasharray:none;stroke-dashoffset:0;stroke-opacity:1" />
    <path
       id="path3172"
       d="m 103.41491,446.4712 h 5.56 c 0.28,0 0.66,0 0.66,-0.4 0,-0.4 -0.38,-0.4 -0.66,-0.4 h -5.56 v -5.58 c 0,-0.28 0,-0.66 -0.4,-0.66 -0.4,0 -0.4,0.38 -0.4,0.66 v 5.58 h -5.58 c -0.28,0 -0.66,0 -0.66,0.4 0,0.4 0.38,0.4 0.66,0.4 h 5.58 v 5.56 c 0,0.28 0,0.66 0.4,0.66 0.4,0 0.4,-0.38 0.4,-0.66 z"
       inkscape:connector-curvature="0"
       style="font-style:normal;font-variant:normal;font-weight:normal;font-stretch:normal;letter-spacing:normal;word-spacing:normal;text-anchor:start;fill:#000000;stroke:#000000;stroke-width:1;stroke-linecap:butt;stroke-linejoin:miter;stroke-miterlimit:10.43299961;stroke-dasharray:none;stroke-dashoffset:0;stroke-opacity:1" />
    <path
       sodipodi:nodetypes="cccccccccccccc"
       inkscape:connector-curvature="0"
       id="path3267"
       d="m 345.06837,164.52312 v 11.11255 l 17.60703,10.16541 -36.60699,9.80882 36.04149,9.65728 -35.61155,9.5421 35.23715,9.03303 -36.26126,8.84028 36.63491,8.64845 -35.28227,8.75315 35.89854,8.45114 -37.40192,8.50363 20.74695,5.20877 v 14.05035"
       style="fill:none;stroke:#000000;stroke-width:2;stroke-linecap:butt;stroke-linejoin:miter;stroke-opacity:1;stroke-miterlimit:4;stroke-dasharray:none" />
    <path
       inkscape:connector-curvature="0"
       id="path3296"
       d="m 232.84016,120.49646 h 113.13709 v 38.3858"
       style="fill:none;stroke:#000000;stroke-width:2;stroke-linecap:butt;stroke-linejoin:miter;stroke-opacity:1;stroke-miterlimit:4;stroke-dasharray:none" />
    <path
       sodipodi:nodetypes="ccc"
       inkscape:connector-curvature="0"
       id="path3298"
       d="m 234.86047,336.16403 h 87.56203 l 24.89666,-44.44671"
       style="fill:none;stroke:#000000;stroke-width:2;stroke-linecap:butt;stroke-linejoin:miter;stroke-opacity:1;stroke-miterlimit:4;stroke-dasharray:none" />
    <path
       sodipodi:nodetypes="ccc"
       inkscape:connector-curvature="0"
       id="path3300"
       d="m 241.42857,673.07647 70.42022,-58.92857 -71.1345,-59.64286"
       style="fill:none;stroke:#000000;stroke-width:2;stroke-linecap:butt;stroke-linejoin:miter;stroke-miterlimit:4;stroke-dasharray:12,12;stroke-dashoffset:0;stroke-opacity:1" />
    <path
       inkscape:connector-curvature="0"
       id="path4070"
       d="m 350.52293,295.75793 23.23351,39.39595 v 277.79195 h -58.58885"
       style="fill:none;stroke:#000000;stroke-width:2;stroke-linecap:butt;stroke-linejoin:miter;stroke-opacity:1;stroke-miterlimit:4;stroke-dasharray:none" />
    <path
       sodipodi:nodetypes="cccc"
       inkscape:connector-curvature="0"
       id="path4098"
       d="M 22.142857,52.362182 H 432.85714 V 763.79075 H 22.857143"
       style="fill:none;stroke:#000000;stroke-width:1px;stroke-linecap:butt;stroke-linejoin:miter;stroke-opacity:1" />
    <circle
       id="path4461-6"
       style="fill:#000000;stroke:#000000;stroke-width:0.502038;stroke-linecap:round;stroke-miterlimit:4;stroke-dasharray:3.01222, 3.01222;stroke-dashoffset:0"
       cx="346.9874"
       cy="291.21225"
       r="4.8410759" />
    <circle
       id="path4461-066"
       style="fill:#000000;stroke:#000000;stroke-width:0.502038;stroke-linecap:round;stroke-miterlimit:4;stroke-dasharray:3.01222, 3.01222;stroke-dashoffset:0"
       cx="345.97723"
       cy="160.39749"
       r="4.8410759" />
    <path
       sodipodi:nodetypes="ccccccc"
       inkscape:connector-curvature="0"
       id="path2985-9"
       d="m 1222.6125,341.91658 25.0322,-37.85714 h 40.5162 l 25.1622,37.85714 -25.1443,37.5 -39.8954,-0.12627 z"
       style="fill:none;stroke:#000000;stroke-width:2;stroke-linecap:butt;stroke-linejoin:miter;stroke-opacity:1;stroke-miterlimit:4;stroke-dasharray:none" />
    <path
       sodipodi:nodetypes="ccccccc"
       inkscape:connector-curvature="0"
       id="path2985-1-5"
       d="m 1221.6781,235.71603 25.0322,-37.85714 h 40.5162 l 25.1622,37.85714 -25.1442,37.5 -39.8954,-0.12627 z"
       style="fill:none;stroke:#000000;stroke-width:2;stroke-linecap:butt;stroke-linejoin:miter;stroke-opacity:1;stroke-miterlimit:4;stroke-dasharray:none" />
    <path
       sodipodi:nodetypes="ccccccc"
       inkscape:connector-curvature="0"
       id="path2985-7-4"
       d="m 1220.1629,126.61955 25.0322,-37.857141 h 40.5162 l 25.1622,37.857141 -25.1443,37.5 -39.8954,-0.12627 z"
       style="fill:none;stroke:#000000;stroke-width:2;stroke-linecap:butt;stroke-linejoin:miter;stroke-opacity:1;stroke-miterlimit:4;stroke-dasharray:none" />
    <path
       sodipodi:nodetypes="ccccccc"
       inkscape:connector-curvature="0"
       id="path2985-4-3"
       d="m 1224.7086,452.39375 25.0321,-37.85714 h 40.5163 l 25.1621,37.85714 -25.1442,37.5 -39.8954,-0.12627 z"
       style="fill:none;stroke:#000000;stroke-width:2;stroke-linecap:butt;stroke-linejoin:miter;stroke-opacity:1;stroke-miterlimit:4;stroke-dasharray:none" />
    <path
       sodipodi:nodetypes="ccccccc"
       inkscape:connector-curvature="0"
       id="path2985-0-12"
       d="m 1225.2136,563.00545 25.0322,-37.85714 h 40.5162 l 25.1622,37.85714 -25.1442,37.5 -39.8954,-0.12627 z"
       style="fill:none;stroke:#000000;stroke-width:2;stroke-linecap:butt;stroke-linejoin:miter;stroke-opacity:1;stroke-miterlimit:4;stroke-dasharray:none" />
    <path
       sodipodi:nodetypes="ccccccc"
       inkscape:connector-curvature="0"
       id="path2985-0-9-3"
       d="m 1225.7187,679.173 25.0322,-37.85714 h 40.5162 l 25.1622,37.85714 -25.1442,37.5 -39.8954,-0.12627 z"
       style="fill:none;stroke:#000000;stroke-width:2;stroke-linecap:butt;stroke-linejoin:miter;stroke-opacity:1;stroke-miterlimit:4;stroke-dasharray:none" />
    <path
       style="font-style:normal;font-variant:normal;font-weight:normal;font-stretch:normal;letter-spacing:normal;word-spacing:normal;text-anchor:start;fill:#000000;stroke:#000000;stroke-width:1;stroke-linecap:butt;stroke-linejoin:miter;stroke-miterlimit:10.43299961;stroke-dasharray:none;stroke-dashoffset:0;stroke-opacity:1"
       inkscape:connector-curvature="0"
       d="m 1160.0239,123.8013 0.08,-0.52 1.36,-5.42 c 0.18,-0.68 0.22,-0.74 1.08,-0.74 h 1.9 c 1.66,0 2.72,0.54 2.72,1.9 0,0.78 -0.4,2.5 -1.18,3.2 -1,0.9 -2.18,1.06 -3.06,1.06 h -2.82 l -0.08,0.52 h 3.4 c 2.82,0 5.6,-2.06 5.6,-4.3 0,-1.54 -1.32,-3 -3.94,-3 h -6.44 c -0.38,0 -0.6,0 -0.6,0.38 0,0.24 0.16,0.24 0.56,0.24 0.26,0 0.62,0.02 0.86,0.04 0.32,0.04 0.44,0.1 0.44,0.32 0,0.06 -0.02,0.14 -0.08,0.36 l -2.66,10.7 c -0.2,0.78 -0.24,0.94 -1.82,0.94 -0.34,0 -0.56,0 -0.56,0.38 0,0.22 0.24,0.22 0.3,0.22 0.56,0 1.98,-0.06 2.54,-0.06 0.42,0 0.86,0.02 1.26,0.02 0.44,0 0.88,0.04 1.3,0.04 0.14,0 0.4,0 0.4,-0.38 0,-0.22 -0.18,-0.22 -0.56,-0.22 -0.74,0 -1.3,0 -1.3,-0.36 0,-0.12 0.04,-0.22 0.06,-0.34 z"
       id="path3056-4" />
    <path
       style="font-style:normal;font-variant:normal;font-weight:normal;font-stretch:normal;letter-spacing:normal;word-spacing:normal;text-anchor:start;fill:#000000;stroke:#000000;stroke-width:1;stroke-linecap:butt;stroke-linejoin:miter;stroke-miterlimit:10.43299961;stroke-dasharray:none;stroke-dashoffset:0;stroke-opacity:1"
       inkscape:connector-curvature="0"
       d="m 1177.7039,125.5213 h 5.56 c 0.28,0 0.66,0 0.66,-0.4 0,-0.4 -0.38,-0.4 -0.66,-0.4 h -5.56 v -5.58 c 0,-0.28 0,-0.66 -0.4,-0.66 -0.4,0 -0.4,0.38 -0.4,0.66 v 5.58 h -5.58 c -0.28,0 -0.66,0 -0.66,0.4 0,0.4 0.38,0.4 0.66,0.4 h 5.58 v 5.56 c 0,0.28 0,0.66 0.4,0.66 0.4,0 0.4,-0.38 0.4,-0.66 z"
       id="path3058-1" />
    <path
       id="path3088-8"
       d="m 1161.169,236.3433 0.08,-0.52 1.36,-5.42 c 0.18,-0.68 0.22,-0.74 1.08,-0.74 h 1.9 c 1.66,0 2.72,0.54 2.72,1.9 0,0.78 -0.4,2.5 -1.18,3.2 -1,0.9 -2.18,1.06 -3.06,1.06 h -2.82 l -0.08,0.52 h 3.4 c 2.82,0 5.6,-2.06 5.6,-4.3 0,-1.54 -1.32,-3 -3.94,-3 h -6.44 c -0.38,0 -0.6,0 -0.6,0.38 0,0.24 0.16,0.24 0.56,0.24 0.26,0 0.62,0.02 0.86,0.04 0.32,0.04 0.44,0.1 0.44,0.32 0,0.06 -0.02,0.14 -0.08,0.36 l -2.66,10.7 c -0.2,0.78 -0.24,0.94 -1.82,0.94 -0.34,0 -0.56,0 -0.56,0.38 0,0.22 0.24,0.22 0.3,0.22 0.56,0 1.98,-0.06 2.54,-0.06 0.42,0 0.86,0.02 1.26,0.02 0.44,0 0.88,0.04 1.3,0.04 0.14,0 0.4,0 0.4,-0.38 0,-0.22 -0.18,-0.22 -0.56,-0.22 -0.74,0 -1.3,0 -1.3,-0.36 0,-0.12 0.04,-0.22 0.06,-0.34 z"
       inkscape:connector-curvature="0"
       style="font-style:normal;font-variant:normal;font-weight:normal;font-stretch:normal;letter-spacing:normal;word-spacing:normal;text-anchor:start;fill:#000000;stroke:#000000;stroke-width:1;stroke-linecap:butt;stroke-linejoin:miter;stroke-miterlimit:10.43299961;stroke-dasharray:none;stroke-dashoffset:0;stroke-opacity:1" />
    <path
       id="path3090-7"
       d="m 1183.829,238.0633 h 0.06 0.06 l 0.08,-0.02 h 0.02 0.04 0.02 0.04 0.02 0.04 l 0.02,-0.02 h 0.02 0.04 l 0.02,-0.02 h 0.02 l 0.02,-0.02 0.02,-0.02 h 0.02 l 0.02,-0.02 0.02,-0.02 0.02,-0.02 0.02,-0.02 v 0 l 0.02,-0.02 v 0 -0.02 l 0.02,-0.02 v 0 -0.02 -0.02 0 l 0.02,-0.02 v -0.02 -0.02 -0.02 0 -0.02 -0.02 c 0,-0.4 -0.36,-0.4 -0.7,-0.4 h -10.78 c -0.34,0 -0.7,0 -0.7,0.4 0,0.4 0.36,0.4 0.7,0.4 z"
       inkscape:connector-curvature="0"
       style="font-style:normal;font-variant:normal;font-weight:normal;font-stretch:normal;letter-spacing:normal;word-spacing:normal;text-anchor:start;fill:#000000;stroke:#000000;stroke-width:1;stroke-linecap:butt;stroke-linejoin:miter;stroke-miterlimit:10.43299961;stroke-dasharray:none;stroke-dashoffset:0;stroke-opacity:1" />
    <path
       style="font-style:normal;font-variant:normal;font-weight:normal;font-stretch:normal;letter-spacing:normal;word-spacing:normal;text-anchor:start;fill:#000000;stroke:#000000;stroke-width:1;stroke-linecap:butt;stroke-linejoin:miter;stroke-miterlimit:10.43299961;stroke-dasharray:none;stroke-dashoffset:0;stroke-opacity:1"
       inkscape:connector-curvature="0"
       d="m 1174.54,333.8591 v 0 -0.02 0 0 -0.02 0 -0.02 0 0 l -0.02,-0.02 v 0 -0.02 0 0 l -0.02,-0.02 v 0 -0.02 h -0.02 v 0 -0.02 h -0.02 v 0 l -0.02,-0.02 v 0 h -0.02 v 0 0 l -0.02,-0.02 v 0 0 h -0.02 v 0 0 h -0.02 v 0 h -0.02 v 0 0 h -0.02 c -0.1,0 -0.12,0.02 -0.36,0.3 l -0.96,1.14 c -0.5,-0.94 -1.54,-1.44 -2.84,-1.44 -2.54,0 -4.92,2.28 -4.92,4.7 0,1.6 1.06,2.52 2.06,2.82 l 2.14,0.56 c 0.74,0.18 1.84,0.48 1.84,2.1 0,1.8 -1.64,3.66 -3.6,3.66 -1.28,0 -3.48,-0.42 -3.48,-2.9 0,-0.48 0.1,-0.96 0.12,-1.08 0.02,-0.06 0.04,-0.1 0.04,-0.14 0,-0.18 -0.14,-0.2 -0.24,-0.2 -0.1,0 -0.14,0.02 -0.2,0.08 -0.08,0.08 -1.2,4.62 -1.2,4.66 0,0.12 0.1,0.2 0.22,0.2 0.1,0 0.12,-0.02 0.36,-0.28 l 0.98,-1.14 c 0.86,1.16 2.2,1.42 3.36,1.42 2.72,0 5.08,-2.64 5.08,-5.1 0,-1.38 -0.68,-2.06 -0.98,-2.34 -0.46,-0.46 -0.76,-0.54 -2.54,-1 -0.44,-0.12 -1.16,-0.3 -1.34,-0.34 -0.54,-0.2 -1.22,-0.76 -1.22,-1.82 0,-1.62 1.6,-3.3 3.5,-3.3 1.66,0 2.86,0.86 2.86,3.08 0,0.64 -0.08,1 -0.08,1.12 0,0.02 0,0.2 0.24,0.2 0.2,0 0.22,-0.06 0.3,-0.4 z"
       id="path3126-27" />
    <path
       style="font-style:normal;font-variant:normal;font-weight:normal;font-stretch:normal;letter-spacing:normal;word-spacing:normal;text-anchor:start;fill:#000000;stroke:#000000;stroke-width:1;stroke-linecap:butt;stroke-linejoin:miter;stroke-miterlimit:10.43299961;stroke-dasharray:none;stroke-dashoffset:0;stroke-opacity:1"
       inkscape:connector-curvature="0"
       d="m 1188.18,343.1191 h 0.08 0.06 l 0.06,-0.02 h 0.02 0.04 0.04 0.02 0.02 0.04 l 0.02,-0.02 h 0.04 0.02 l 0.02,-0.02 h 0.02 l 0.04,-0.02 0.02,-0.02 h 0.02 l 0.02,-0.02 0.02,-0.02 v -0.02 l 0.02,-0.02 h 0.02 v -0.02 0 l 0.02,-0.02 v -0.02 0 -0.02 -0.02 h 0.02 v -0.02 -0.02 -0.02 -0.02 0 -0.02 -0.02 c 0,-0.4 -0.36,-0.4 -0.7,-0.4 h -10.78 c -0.34,0 -0.7,0 -0.7,0.4 0,0.4 0.36,0.4 0.7,0.4 z"
       id="path3128-7" />
    <path
       id="path3170-3"
       d="m 1176.4253,443.6608 v 0 -0.02 0 0 -0.02 0 -0.02 0 0 l -0.02,-0.02 v 0 -0.02 0 0 l -0.02,-0.02 v 0 -0.02 h -0.02 v 0 -0.02 h -0.02 v 0 l -0.02,-0.02 v 0 h -0.02 v 0 0 l -0.02,-0.02 v 0 0 h -0.02 v 0 0 h -0.02 v 0 h -0.02 v 0 0 h -0.02 c -0.1,0 -0.12,0.02 -0.36,0.3 l -0.96,1.14 c -0.5,-0.94 -1.54,-1.44 -2.84,-1.44 -2.54,0 -4.92,2.28 -4.92,4.7 0,1.6 1.06,2.52 2.06,2.82 l 2.14,0.56 c 0.74,0.18 1.84,0.48 1.84,2.1 0,1.8 -1.64,3.66 -3.6,3.66 -1.28,0 -3.48,-0.42 -3.48,-2.9 0,-0.48 0.1,-0.96 0.12,-1.08 0.02,-0.06 0.04,-0.1 0.04,-0.14 0,-0.18 -0.14,-0.2 -0.24,-0.2 -0.1,0 -0.14,0.02 -0.2,0.08 -0.08,0.08 -1.2,4.62 -1.2,4.66 0,0.12 0.1,0.2 0.22,0.2 0.1,0 0.12,-0.02 0.36,-0.28 l 0.98,-1.14 c 0.86,1.16 2.2,1.42 3.36,1.42 2.72,0 5.08,-2.64 5.08,-5.1 0,-1.38 -0.68,-2.06 -0.98,-2.34 -0.46,-0.46 -0.76,-0.54 -2.54,-1 -0.44,-0.12 -1.16,-0.3 -1.34,-0.34 -0.54,-0.2 -1.22,-0.76 -1.22,-1.82 0,-1.62 1.6,-3.3 3.5,-3.3 1.66,0 2.86,0.86 2.86,3.08 0,0.64 -0.08,1 -0.08,1.12 0,0.02 0,0.2 0.24,0.2 0.2,0 0.22,-0.06 0.3,-0.4 z"
       inkscape:connector-curvature="0"
       style="font-style:normal;font-variant:normal;font-weight:normal;font-stretch:normal;letter-spacing:normal;word-spacing:normal;text-anchor:start;fill:#000000;stroke:#000000;stroke-width:1;stroke-linecap:butt;stroke-linejoin:miter;stroke-miterlimit:10.43299961;stroke-dasharray:none;stroke-dashoffset:0;stroke-opacity:1" />
    <path
       id="path3172-1"
       d="m 1185.0853,452.9208 h 5.56 c 0.28,0 0.66,0 0.66,-0.4 0,-0.4 -0.38,-0.4 -0.66,-0.4 h -5.56 v -5.58 c 0,-0.28 0,-0.66 -0.4,-0.66 -0.4,0 -0.4,0.38 -0.4,0.66 v 5.58 h -5.58 c -0.28,0 -0.66,0 -0.66,0.4 0,0.4 0.38,0.4 0.66,0.4 h 5.58 v 5.56 c 0,0.28 0,0.66 0.4,0.66 0.4,0 0.4,-0.38 0.4,-0.66 z"
       inkscape:connector-curvature="0"
       style="font-style:normal;font-variant:normal;font-weight:normal;font-stretch:normal;letter-spacing:normal;word-spacing:normal;text-anchor:start;fill:#000000;stroke:#000000;stroke-width:1;stroke-linecap:butt;stroke-linejoin:miter;stroke-miterlimit:10.43299961;stroke-dasharray:none;stroke-dashoffset:0;stroke-opacity:1" />
    <path
       sodipodi:nodetypes="cccccccccccccc"
       inkscape:connector-curvature="0"
       id="path3267-9"
       d="m 1526.9566,208.7639 7.8578,7.85776 19.6381,-5.26202 -18.9492,32.82094 32.3139,-18.65646 -18.4339,31.92846 31.3038,-18.52911 -19.3896,31.8916 32.0202,-19.78942 -18.7589,31.13775 31.3599,-19.40824 -20.4342,32.46012 18.3535,-10.98715 9.9351,9.9351"
       style="fill:none;stroke:#000000;stroke-width:2;stroke-linecap:butt;stroke-linejoin:miter;stroke-opacity:1;stroke-miterlimit:4;stroke-dasharray:none" />
    <path
       style="fill:none;stroke:#000000;stroke-width:2;stroke-linecap:butt;stroke-linejoin:miter;stroke-opacity:1;stroke-miterlimit:4;stroke-dasharray:none"
       d="m 1423.6255,306.2819 7.8577,7.85776 19.6381,-5.26202 -18.9492,32.82094 32.3139,-18.65646 -18.4339,31.92846 31.3038,-18.52911 -19.3896,31.8916 32.0202,-19.78942 -18.7589,31.13775 31.3599,-19.40824 -20.4341,32.46012 18.3534,-10.98715 9.9351,9.9351"
       id="path3267-9-0"
       inkscape:connector-curvature="0"
       sodipodi:nodetypes="cccccccccccccc" />
    <path
       sodipodi:nodetypes="cccccccccccccc"
       inkscape:connector-curvature="0"
       id="path3267-9-2"
       d="m 1420.9508,290.77298 7.8577,-7.8578 -5.262,-19.6381 32.8209,18.9492 -18.6564,-32.3139 31.9284,18.4339 -18.5291,-31.3038 31.8916,19.3896 -19.7894,-32.0202 31.1378,18.7589 -19.4083,-31.3599 32.4601,20.4342 -10.9871,-18.3535 9.9351,-9.9351"
       style="fill:none;stroke:#000000;stroke-width:2;stroke-linecap:butt;stroke-linejoin:miter;stroke-opacity:1;stroke-miterlimit:4;stroke-dasharray:none" />
    <path
       sodipodi:nodetypes="cccccccccccccc"
       inkscape:connector-curvature="0"
       id="path3267-9-2-4"
       d="m 1525.2366,392.91584 7.8577,-7.8578 -5.262,-19.6381 32.8209,18.9492 -18.6564,-32.3139 31.9284,18.4339 -18.5291,-31.3038 31.8916,19.3896 -19.7894,-32.0202 31.1378,18.7589 -19.4083,-31.3599 32.4601,20.4342 -10.9871,-18.3535 9.9351,-9.9351"
       style="fill:none;stroke:#000000;stroke-width:2;stroke-linecap:butt;stroke-linejoin:miter;stroke-opacity:1;stroke-miterlimit:4;stroke-dasharray:none" />
    <circle
       r="4.8410759"
       cy="202.31882"
       cx="1515.7339"
       id="path4461"
       style="fill:#000000;stroke:#000000;stroke-width:0.502038;stroke-linecap:round;stroke-miterlimit:4;stroke-dasharray:3.01222, 3.01222;stroke-dashoffset:0" />
    <circle
       r="4.8410759"
       cy="392.22748"
       cx="1516.744"
       id="path4461-0"
       style="fill:#000000;stroke:#000000;stroke-width:0.502038;stroke-linecap:round;stroke-miterlimit:4;stroke-dasharray:3.01222, 3.01222;stroke-dashoffset:0" />
    <circle
       r="4.8410759"
       cy="300.30362"
       cx="1612.7085"
       id="path4461-06"
       style="fill:#000000;stroke:#000000;stroke-width:0.502038;stroke-linecap:round;stroke-miterlimit:4;stroke-dasharray:3.01222, 3.01222;stroke-dashoffset:0" />
    <circle
       r="4.8410759"
       cy="296.263"
       cx="1418.7593"
       id="path4461-1"
       style="fill:#000000;stroke:#000000;stroke-width:0.502038;stroke-linecap:round;stroke-miterlimit:4;stroke-dasharray:3.01222, 3.01222;stroke-dashoffset:0" />
    <path
       sodipodi:nodetypes="ccc"
       inkscape:connector-curvature="0"
       id="path4599"
       d="m 1514.5951,192.40908 -0.7143,-71.40754 h -202.7027"
       style="fill:none;stroke:#000000;stroke-width:2;stroke-linecap:butt;stroke-linejoin:miter;stroke-opacity:1;stroke-miterlimit:4;stroke-dasharray:none" />
    <path
       sodipodi:nodetypes="cccc"
       inkscape:connector-curvature="0"
       id="path4601"
       d="m 1620.2847,301.81884 h 36.3655 v 155.56349 h -336.3808"
       style="fill:none;stroke:#000000;stroke-width:2;stroke-linecap:butt;stroke-linejoin:miter;stroke-opacity:1;stroke-miterlimit:4;stroke-dasharray:none" />
    <path
       inkscape:connector-curvature="0"
       id="path4613"
       d="m 1411.6882,295.25285 h -80.8123 v 47.47717 h -14.1421"
       style="fill:none;stroke:#000000;stroke-width:2;stroke-linecap:butt;stroke-linejoin:miter;stroke-opacity:1;stroke-miterlimit:4;stroke-dasharray:none" />
    <path
       sodipodi:nodetypes="ccccccc"
       inkscape:connector-curvature="0"
       id="path4615"
       d="m 1516.239,399.29856 v 16.66752 H 1376.3329 V 308.38483 c 19.3348,-7.82888 10.8074,-23.1682 0,-25.25381 v -46.97209 h -61.1142"
       style="fill:none;stroke:#000000;stroke-width:2;stroke-linecap:butt;stroke-linejoin:miter;stroke-opacity:1;stroke-miterlimit:4;stroke-dasharray:none" />
  </g>
</svg>
