<?xml version="1.0" encoding="UTF-8" standalone="no"?>
<svg
   xmlns:dc="http://purl.org/dc/elements/1.1/"
   xmlns:cc="http://creativecommons.org/ns#"
   xmlns:rdf="http://www.w3.org/1999/02/22-rdf-syntax-ns#"
   xmlns:svg="http://www.w3.org/2000/svg"
   xmlns="http://www.w3.org/2000/svg"
   xmlns:sodipodi="http://sodipodi.sourceforge.net/DTD/sodipodi-0.dtd"
   xmlns:inkscape="http://www.inkscape.org/namespaces/inkscape"
   sodipodi:docname="inductor_symbol.svg"
   inkscape:version="1.0 (1.0+r73+1)"
   id="svg3772"
   version="1.1"
   viewBox="0 0 210 297"
   height="297mm"
   width="210mm">
  <defs
     id="defs3766" />
  <sodipodi:namedview
     inkscape:window-maximized="1"
     inkscape:window-y="0"
     inkscape:window-x="0"
     inkscape:window-height="1013"
     inkscape:window-width="1680"
     showgrid="true"
     inkscape:document-rotation="0"
     inkscape:current-layer="layer1"
     inkscape:document-units="mm"
     inkscape:cy="348.68364"
     inkscape:cx="118.46441"
     inkscape:zoom="1.4"
     inkscape:pageshadow="2"
     inkscape:pageopacity="0.0"
     borderopacity="1.0"
     bordercolor="#666666"
     pagecolor="#ffffff"
     id="base">
    <inkscape:grid
       id="grid4341"
       type="xygrid" />
  </sodipodi:namedview>
  <metadata
     id="metadata3769">
    <rdf:RDF>
      <cc:Work
         rdf:about="">
        <dc:format>image/svg+xml</dc:format>
        <dc:type
           rdf:resource="http://purl.org/dc/dcmitype/StillImage" />
        <dc:title></dc:title>
      </cc:Work>
    </rdf:RDF>
  </metadata>
  <g
     id="layer1"
     inkscape:groupmode="layer"
     inkscape:label="Layer 1">
    <path
       sodipodi:nodetypes="cssccsssssssssssssssscssssssssssssssc"
       id="path4339"
       d="m 26.608047,124.55879 c -1.698657,-5.42123 1.647997,-11.37197 6.652956,-13.67092 4.391615,-2.01722 10.085389,0.33266 12.967528,3.96845 2.607564,3.28942 4.853716,5.79657 5.365219,6.85201 1.810652,4.91274 1.322917,2.64584 1.322917,7.9375 0,2.64584 -2.645829,6.58302 -5.858333,6.59835 -3.402084,0.0162 -5.832203,-5.1214 -5.872491,-7.56136 -0.0461,-2.79214 1.042736,-5.2869 2.348103,-7.70768 1.055679,-1.95773 2.561643,-4.38152 4.265718,-5.85895 3.696764,-3.20511 5.387807,-3.55357 10.226079,-3.7891 4.15134,-0.20209 10.999865,3.29514 13.176669,5.92221 1.467355,1.77088 3.765744,5.78383 4.015747,8.04491 0.23372,2.11381 0.188091,3.02871 -1.294083,6.77505 -0.482768,1.22024 -2.768914,4.11315 -4.061599,4.22448 -2.512145,0.21637 -4.845662,-2.21779 -5.290717,-4.20465 -0.922015,-4.11614 -0.64808,-2.94143 -0.867674,-6.79724 -0.204086,-3.58352 2.101241,-6.19335 2.576383,-7.24207 1.315119,-2.90268 7.802864,-6.92478 15.644892,-7.08215 5.531426,-0.111 11.529611,1.31964 15.829627,6.1242 1.729299,1.9322 2.365782,3.44479 2.896992,5.91255 0.32726,1.52031 0.68344,2.14354 0.18188,4.68915 -0.73641,3.73757 -1.61511,7.50855 -7.412972,8.19154 -3.462555,-0.94757 -3.837986,-3.15959 -4.783213,-4.99249 -1.325175,-2.56966 -1.384093,-3.98832 -1.046229,-6.32087 0.367144,-2.53467 1.341538,-4.64859 2.573356,-6.97189 3.222921,-6.07866 11.699778,-7.79774 16.066328,-7.32729 7.5109,0.80922 13.60916,4.07833 16.29256,7.46085 3.15339,3.97495 2.91147,4.1883 3.09253,7.43168 0.21089,3.77798 0.0609,3.15786 -1.23156,6.97906 -0.82751,2.44662 -4.14708,4.55831 -6.2995,4.60725 -1.80099,0.041 -3.62273,-1.70704 -4.89705,-3.41964 -1.56603,-2.10464 -2.13172,-4.58075 -2.4016,-6.64374 -0.42692,-3.26347 1.31742,-6.8794 3.67106,-9.30809 1.9591,-2.02157 4.60493,-6.78407 11.40112,-6.76903 5.90381,0.0131 6.96214,2.36621 7.97895,4.14163 1.04458,1.8239 1.38038,1.91668 1.75061,5.7141 0.58335,5.98336 0.143,2.30007 0.93675,6.26882"
       style="fill:none;stroke:#000000;stroke-width:0.264583px;stroke-linecap:butt;stroke-linejoin:miter;stroke-opacity:1" />
  </g>
</svg>
