<?xml version="1.0" encoding="UTF-8" standalone="no"?>
<svg
   xmlns:dc="http://purl.org/dc/elements/1.1/"
   xmlns:cc="http://creativecommons.org/ns#"
   xmlns:rdf="http://www.w3.org/1999/02/22-rdf-syntax-ns#"
   xmlns:svg="http://www.w3.org/2000/svg"
   xmlns="http://www.w3.org/2000/svg"
   xmlns:sodipodi="http://sodipodi.sourceforge.net/DTD/sodipodi-0.dtd"
   xmlns:inkscape="http://www.inkscape.org/namespaces/inkscape"
   inkscape:export-ydpi="95.900002"
   inkscape:export-xdpi="95.900002"
   inkscape:export-filename="/home/thill/Documents/lectures/measurements_lectures/steady_state_circuits/steady_state_circuits_topic1/inductor_symbol.png"
   width="55.183331mm"
   height="11.711383mm"
   viewBox="0 0 55.183331 11.711383"
   version="1.1"
   id="svg3772"
   inkscape:version="1.0 (1.0+r73+1)"
   sodipodi:docname="inductor_symbol.svg">
  <defs
     id="defs3766">
    <marker
       inkscape:isstock="true"
       style="overflow:visible"
       id="marker1286"
       refX="0"
       refY="0"
       orient="auto"
       inkscape:stockid="DotS">
      <path
         transform="matrix(0.2,0,0,0.2,1.48,0.2)"
         style="fill:#000000;fill-opacity:1;fill-rule:evenodd;stroke:#000000;stroke-width:1pt;stroke-opacity:1"
         d="m -2.5,-1 c 0,2.76 -2.24,5 -5,5 -2.76,0 -5,-2.24 -5,-5 0,-2.76 2.24,-5 5,-5 2.76,0 5,2.24 5,5 z"
         id="path1284" />
    </marker>
    <marker
       inkscape:stockid="DotS"
       orient="auto"
       refY="0"
       refX="0"
       id="DotS"
       style="overflow:visible"
       inkscape:isstock="true"
       inkscape:collect="always">
      <path
         id="path973"
         d="m -2.5,-1 c 0,2.76 -2.24,5 -5,5 -2.76,0 -5,-2.24 -5,-5 0,-2.76 2.24,-5 5,-5 2.76,0 5,2.24 5,5 z"
         style="fill:#000000;fill-opacity:1;fill-rule:evenodd;stroke:#000000;stroke-width:1pt;stroke-opacity:1"
         transform="matrix(0.2,0,0,0.2,1.48,0.2)" />
    </marker>
    <marker
       inkscape:stockid="DotM"
       orient="auto"
       refY="0"
       refX="0"
       id="DotM"
       style="overflow:visible"
       inkscape:isstock="true">
      <path
         id="path970"
         d="m -2.5,-1 c 0,2.76 -2.24,5 -5,5 -2.76,0 -5,-2.24 -5,-5 0,-2.76 2.24,-5 5,-5 2.76,0 5,2.24 5,5 z"
         style="fill:#000000;fill-opacity:1;fill-rule:evenodd;stroke:#000000;stroke-width:1pt;stroke-opacity:1"
         transform="matrix(0.4,0,0,0.4,2.96,0.4)" />
    </marker>
  </defs>
  <sodipodi:namedview
     fit-margin-bottom="0"
     fit-margin-right="0"
     fit-margin-left="0"
     fit-margin-top="0"
     id="base"
     pagecolor="#ffffff"
     bordercolor="#666666"
     borderopacity="1.0"
     inkscape:pageopacity="0.0"
     inkscape:pageshadow="2"
     inkscape:zoom="4"
     inkscape:cx="96.699561"
     inkscape:cy="45.198681"
     inkscape:document-units="mm"
     inkscape:current-layer="layer1"
     inkscape:document-rotation="0"
     showgrid="true"
     inkscape:window-width="1853"
     inkscape:window-height="1025"
     inkscape:window-x="67"
     inkscape:window-y="27"
     inkscape:window-maximized="1">
    <inkscape:grid
       originy="5.8604502"
       originx="15.700124"
       type="xygrid"
       id="grid4341" />
  </sodipodi:namedview>
  <metadata
     id="metadata3769">
    <rdf:RDF>
      <cc:Work
         rdf:about="">
        <dc:format>image/svg+xml</dc:format>
        <dc:type
           rdf:resource="http://purl.org/dc/dcmitype/StillImage" />
        <dc:title></dc:title>
      </cc:Work>
    </rdf:RDF>
  </metadata>
  <g
     transform="translate(15.700125,5.8604504)"
     inkscape:label="Layer 1"
     inkscape:groupmode="layer"
     id="layer1">
    <g
       style="stroke-width:0.5;stroke-miterlimit:4;stroke-dasharray:none"
       transform="matrix(2,0,0,2,-11.900958,0.0047588)"
       id="g1340">
      <path
         style="fill:none;stroke:#000000;stroke-width:0.5;stroke-linecap:butt;stroke-linejoin:miter;stroke-miterlimit:4;stroke-dasharray:none;stroke-opacity:1"
         d="m 6.6145833,0 c 0,-1.8248295 1.868556,-2.6553508 3.191473,-2.6553508 1.3229167,0 3.4231107,0.8305213 3.4220737,2.6893977 -7.15e-4,1.2830199 10e-4,2.6117864 -1.32188,2.6117864 -1.322917,0 -1.322917,-1.3229164 -1.322917,-2.6458333"
         id="path4339-3"
         sodipodi:nodetypes="csssc" />
      <path
         sodipodi:nodetypes="csssc"
         id="path4339-3-6"
         d="m 10.583333,0 c 0,-1.8248295 1.868556,-2.6553508 3.191473,-2.6553508 1.322917,0 3.423111,0.8305213 3.422074,2.6893977 -7.14e-4,1.2830199 0.001,2.6390401 -1.32188,2.6390401 -1.322917,0 -1.322917,-1.3501701 -1.322917,-2.673087"
         style="fill:none;stroke:#000000;stroke-width:0.5;stroke-linecap:butt;stroke-linejoin:miter;stroke-miterlimit:4;stroke-dasharray:none;stroke-opacity:1" />
      <path
         sodipodi:nodetypes="cssssscc"
         id="path4339-3-7"
         d="m 14.552083,0 c 0,-1.8248295 1.868556,-2.6553508 3.191473,-2.6553508 1.322917,0 3.423111,0.8305213 3.422074,2.6893977 -7.15e-4,1.2830199 9.2e-4,2.6264881 -1.321879,2.6117864 C 18.48131,2.630691 18.492284,1.3229169 18.50655,7.9045785e-4 18.520833,-1.3229167 19.404054,-2.6386148 21.170885,-2.6266122 22.771658,-2.6157377 22.489583,-1.0583333 22.489583,0 h 2.645833"
         style="fill:none;stroke:#000000;stroke-width:0.5;stroke-linecap:butt;stroke-linejoin:miter;stroke-miterlimit:4;stroke-dasharray:none;stroke-opacity:1;marker-end:url(#marker1286)" />
      <path
         sodipodi:nodetypes="ccsssssssc"
         id="path53"
         d="m -1.3229166,0 h 2.6458331 c 0,-1.3229167 0,-2.6458333 1.3229167,-2.6458333 1.3229168,0 2.6458335,0.79375 2.6458335,2.61637635 0,1.35237365 0,2.67529025 -1.299846,2.67529025 -1.3459875,0 -1.3459875,-1.3229166 -1.3459875,-2.67308711 0,-1.82482949 1.8685564,-2.65535079 3.191473,-2.65535079 1.3229167,0 3.4231105,0.8305213 3.4220737,2.68939771 C 9.2586643,1.2898129 9.2604167,2.6458333 7.9375,2.6458333 6.6145833,2.6458333 6.6145833,1.3229167 6.6145833,0"
         style="fill:none;stroke:#000000;stroke-width:0.5;stroke-linecap:butt;stroke-linejoin:miter;stroke-miterlimit:4;stroke-dasharray:none;stroke-opacity:1;marker-start:url(#DotS)" />
    </g>
  </g>
</svg>
