<?xml version="1.0" encoding="UTF-8" standalone="no"?>
<svg
   xmlns:ns2="http://www.iki.fi/pav/software/textext/"
   xmlns:dc="http://purl.org/dc/elements/1.1/"
   xmlns:cc="http://creativecommons.org/ns#"
   xmlns:rdf="http://www.w3.org/1999/02/22-rdf-syntax-ns#"
   xmlns:svg="http://www.w3.org/2000/svg"
   xmlns="http://www.w3.org/2000/svg"
   xmlns:sodipodi="http://sodipodi.sourceforge.net/DTD/sodipodi-0.dtd"
   xmlns:inkscape="http://www.inkscape.org/namespaces/inkscape"
   sodipodi:docname="voltage_source_symbol.svg"
   inkscape:version="1.0 (1.0+r73+1)"
   id="svg8"
   version="1.1"
   viewBox="0 0 210 297"
   height="297mm"
   width="210mm">
  <defs
     id="defs2">
    <g
       id="id-eb753b1c-1c80-4992-a715-dfbae2b4e784-7">
      <symbol
         overflow="visible"
         id="id-1f88a360-ef5d-48f7-84f3-7a34cc5a2ad7-5">
        <path
           style="stroke:none"
           d=""
           id="id-4b069c76-f1a4-4d71-b953-c361fd6f61a1-3" />
      </symbol>
      <symbol
         overflow="visible"
         id="id-1405ee59-84e4-4498-b7a1-a95f0a2dea4a-5">
        <path
           style="stroke:none"
           d="m 4.671875,-3.703125 c 0,-0.546875 -0.265625,-0.703125 -0.4375,-0.703125 -0.25,0 -0.5,0.265625 -0.5,0.484375 0,0.125 0.046875,0.1875 0.15625,0.296875 0.21875,0.203125 0.34375,0.453125 0.34375,0.8125 0,0.421875 -0.609375,2.703125 -1.765625,2.703125 -0.515625,0 -0.75,-0.34375 -0.75,-0.875 0,-0.546875 0.28125,-1.28125 0.578125,-2.109375 0.078125,-0.171875 0.125,-0.3125 0.125,-0.5 0,-0.4375 -0.3125,-0.8125 -0.8125,-0.8125 -0.9375,0 -1.3125,1.453125 -1.3125,1.53125 0,0.109375 0.09375,0.109375 0.109375,0.109375 0.109375,0 0.109375,-0.03125 0.15625,-0.1875 0.296875,-1 0.71875,-1.234375 1.015625,-1.234375 0.078125,0 0.25,0 0.25,0.3125 0,0.25 -0.109375,0.53125 -0.171875,0.703125 -0.4375,1.15625 -0.5625,1.609375 -0.5625,2.046875 0,1.078125 0.875,1.234375 1.328125,1.234375 1.671875,0 2.25,-3.296875 2.25,-3.8125 z m 0,0"
           id="id-ab10f783-0588-4cc0-bfcc-f1f4423fca2a-6" />
      </symbol>
      <symbol
         overflow="visible"
         id="id-9fe7c84b-d638-4e91-834f-24c1cdaa8832-2">
        <path
           style="stroke:none"
           d=""
           id="id-316c2f58-49a6-4a04-b6ea-813cc31c79cd-9" />
      </symbol>
      <symbol
         overflow="visible"
         id="id-4f75786e-2e8a-4874-8e13-59ec922c3091-1">
        <path
           style="stroke:none"
           d="m 3,-2.625 c -0.171875,0.046875 -0.296875,0.1875 -0.296875,0.328125 0,0.171875 0.140625,0.234375 0.234375,0.234375 0.078125,0 0.34375,-0.046875 0.34375,-0.40625 0,-0.453125 -0.5,-0.609375 -0.9375,-0.609375 -1.078125,0 -1.28125,0.8125 -1.28125,1.015625 0,0.265625 0.15625,0.4375 0.25,0.515625 0.171875,0.140625 0.296875,0.171875 0.78125,0.25 0.15625,0.03125 0.59375,0.109375 0.59375,0.453125 0,0.125 -0.078125,0.390625 -0.359375,0.5625 C 2.046875,-0.125 1.703125,-0.125 1.625,-0.125 1.34375,-0.125 0.953125,-0.1875 0.78125,-0.421875 1.015625,-0.453125 1.171875,-0.625 1.171875,-0.8125 c 0,-0.171875 -0.125,-0.265625 -0.265625,-0.265625 -0.203125,0 -0.40625,0.171875 -0.40625,0.46875 0,0.421875 0.4375,0.671875 1.109375,0.671875 1.296875,0 1.53125,-0.875 1.53125,-1.140625 0,-0.640625 -0.703125,-0.765625 -0.96875,-0.8125 -0.0625,-0.015625 -0.234375,-0.046875 -0.28125,-0.0625 -0.25,-0.046875 -0.375,-0.1875 -0.375,-0.34375 0,-0.15625 0.125,-0.34375 0.28125,-0.453125 0.1875,-0.109375 0.421875,-0.125 0.546875,-0.125 0.140625,0 0.5,0.015625 0.65625,0.25 z m 0,0"
           id="id-06a278fe-bb6c-4698-9671-2d15c25da220-2" />
      </symbol>
    </g>
    <g
       id="id-b343e39f-1ee7-4ac2-9aec-fd20d888f9ed-1">
      <symbol
         overflow="visible"
         id="id-264677dd-8d3a-48d9-b7cd-2b88187ee35a-8">
        <path
           style="stroke:none"
           d=""
           id="id-8ff9ca47-b628-489a-b66f-bd87f2184708-7" />
      </symbol>
      <symbol
         overflow="visible"
         id="id-c451fbe0-9b24-49e0-8ca4-1054246af0bf-9">
        <path
           style="stroke:none"
           d="m 4.078125,-2.296875 h 2.78125 C 7,-2.296875 7.1875,-2.296875 7.1875,-2.5 7.1875,-2.6875 7,-2.6875 6.859375,-2.6875 h -2.78125 v -2.796875 c 0,-0.140625 0,-0.328125 -0.203125,-0.328125 -0.203125,0 -0.203125,0.1875 -0.203125,0.328125 V -2.6875 h -2.78125 c -0.140625,0 -0.328125,0 -0.328125,0.1875 0,0.203125 0.1875,0.203125 0.328125,0.203125 h 2.78125 V 0.5 c 0,0.140625 0,0.328125 0.203125,0.328125 0.203125,0 0.203125,-0.1875 0.203125,-0.328125 z m 0,0"
           id="id-850936d9-bc7f-43bb-b8a5-1298044b51e8-2" />
      </symbol>
    </g>
  </defs>
  <sodipodi:namedview
     inkscape:window-maximized="1"
     inkscape:window-y="0"
     inkscape:window-x="0"
     inkscape:window-height="1013"
     inkscape:window-width="1680"
     showgrid="true"
     inkscape:document-rotation="0"
     inkscape:current-layer="layer1"
     inkscape:document-units="mm"
     inkscape:cy="366.36644"
     inkscape:cx="307.48857"
     inkscape:zoom="1.979899"
     inkscape:pageshadow="2"
     inkscape:pageopacity="0.0"
     borderopacity="1.0"
     bordercolor="#666666"
     pagecolor="#ffffff"
     id="base">
    <inkscape:grid
       id="grid1479"
       type="xygrid" />
  </sodipodi:namedview>
  <metadata
     id="metadata5">
    <rdf:RDF>
      <cc:Work
         rdf:about="">
        <dc:format>image/svg+xml</dc:format>
        <dc:type
           rdf:resource="http://purl.org/dc/dcmitype/StillImage" />
        <dc:title></dc:title>
      </cc:Work>
    </rdf:RDF>
  </metadata>
  <g
     id="layer1"
     inkscape:groupmode="layer"
     inkscape:label="Layer 1">
    <g
       id="g2242">
      <circle
         style="fill:#000000;fill-opacity:0;stroke:#1a1a1a;stroke-width:1;stroke-linejoin:round;stop-color:#000000"
         id="path833"
         cx="77.03183"
         cy="115.55288"
         r="14.728714" />
      <g
         id="g2028"
         ns2:jacobian_sqrt="1.41111"
         ns2:alignment="middle center"
         ns2:scale="4.0"
         ns2:preamble="/home/thill/.config/inkscape/extensions/textext/default_packages.tex"
         ns2:text="$v_s$"
         ns2:pdfconverter="inkscape"
         ns2:texconverter="pdflatex"
         ns2:version="1.0.1"
         transform="matrix(1.41111 0 0 1.41111 71.6346 112.168)">
        <defs
           id="id-4b956b42-b303-4a7d-8436-92ebcb9c7fd5">
          <g
             id="id-801f2c27-4eae-4459-9cff-3fed274ecc69">
            <symbol
               overflow="visible"
               id="id-b149d179-6f29-484b-8eee-5f948c0b5028">
              <path
                 style="stroke:none"
                 d=""
                 id="id-817b706e-ad2c-40a8-b44e-313f8629fa33" />
            </symbol>
            <symbol
               overflow="visible"
               id="id-3b3b9e4b-0ae4-4098-8ec7-c197674477e9">
              <path
                 style="stroke:none"
                 d="m 4.671875,-3.703125 c 0,-0.546875 -0.265625,-0.703125 -0.4375,-0.703125 -0.25,0 -0.5,0.265625 -0.5,0.484375 0,0.125 0.046875,0.1875 0.15625,0.296875 0.21875,0.203125 0.34375,0.453125 0.34375,0.8125 0,0.421875 -0.609375,2.703125 -1.765625,2.703125 -0.515625,0 -0.75,-0.34375 -0.75,-0.875 0,-0.546875 0.28125,-1.28125 0.578125,-2.109375 0.078125,-0.171875 0.125,-0.3125 0.125,-0.5 0,-0.4375 -0.3125,-0.8125 -0.8125,-0.8125 -0.9375,0 -1.3125,1.453125 -1.3125,1.53125 0,0.109375 0.09375,0.109375 0.109375,0.109375 0.109375,0 0.109375,-0.03125 0.15625,-0.1875 0.296875,-1 0.71875,-1.234375 1.015625,-1.234375 0.078125,0 0.25,0 0.25,0.3125 0,0.25 -0.109375,0.53125 -0.171875,0.703125 -0.4375,1.15625 -0.5625,1.609375 -0.5625,2.046875 0,1.078125 0.875,1.234375 1.328125,1.234375 1.671875,0 2.25,-3.296875 2.25,-3.8125 z m 0,0"
                 id="id-4d37bf05-a185-46f8-9c36-e290ec88a1d8" />
            </symbol>
            <symbol
               overflow="visible"
               id="id-d78da186-0332-4718-a492-ea3407accd4f">
              <path
                 style="stroke:none"
                 d=""
                 id="id-742a98ce-3821-4525-a23b-298907eb6c78" />
            </symbol>
            <symbol
               overflow="visible"
               id="id-570336a1-8066-4ea3-8198-c019962f60be">
              <path
                 style="stroke:none"
                 d="m 3,-2.625 c -0.171875,0.046875 -0.296875,0.1875 -0.296875,0.328125 0,0.171875 0.140625,0.234375 0.234375,0.234375 0.078125,0 0.34375,-0.046875 0.34375,-0.40625 0,-0.453125 -0.5,-0.609375 -0.9375,-0.609375 -1.078125,0 -1.28125,0.8125 -1.28125,1.015625 0,0.265625 0.15625,0.4375 0.25,0.515625 0.171875,0.140625 0.296875,0.171875 0.78125,0.25 0.15625,0.03125 0.59375,0.109375 0.59375,0.453125 0,0.125 -0.078125,0.390625 -0.359375,0.5625 C 2.046875,-0.125 1.703125,-0.125 1.625,-0.125 1.34375,-0.125 0.953125,-0.1875 0.78125,-0.421875 1.015625,-0.453125 1.171875,-0.625 1.171875,-0.8125 c 0,-0.171875 -0.125,-0.265625 -0.265625,-0.265625 -0.203125,0 -0.40625,0.171875 -0.40625,0.46875 0,0.421875 0.4375,0.671875 1.109375,0.671875 1.296875,0 1.53125,-0.875 1.53125,-1.140625 0,-0.640625 -0.703125,-0.765625 -0.96875,-0.8125 -0.0625,-0.015625 -0.234375,-0.046875 -0.28125,-0.0625 -0.25,-0.046875 -0.375,-0.1875 -0.375,-0.34375 0,-0.15625 0.125,-0.34375 0.28125,-0.453125 0.1875,-0.109375 0.421875,-0.125 0.546875,-0.125 0.140625,0 0.5,0.015625 0.65625,0.25 z m 0,0"
                 id="id-67eb938b-e9eb-40ca-82a8-e4a43cbcb874" />
            </symbol>
          </g>
        </defs>
        <g
           id="id-3680a1a2-c1aa-4900-8f32-8af7e72a5e56"
           transform="translate(-149.009, -130.359)">
          <g
             style="fill:#000000;fill-opacity:1"
             id="id-636991e1-aaae-4922-99a1-224ae2cf1ca2">
            <g
               id="g2020"
               transform="translate(148.712, 134.765)">
              <path
                 style="stroke:none"
                 d="m 4.671875,-3.703125 c 0,-0.546875 -0.265625,-0.703125 -0.4375,-0.703125 -0.25,0 -0.5,0.265625 -0.5,0.484375 0,0.125 0.046875,0.1875 0.15625,0.296875 0.21875,0.203125 0.34375,0.453125 0.34375,0.8125 0,0.421875 -0.609375,2.703125 -1.765625,2.703125 -0.515625,0 -0.75,-0.34375 -0.75,-0.875 0,-0.546875 0.28125,-1.28125 0.578125,-2.109375 0.078125,-0.171875 0.125,-0.3125 0.125,-0.5 0,-0.4375 -0.3125,-0.8125 -0.8125,-0.8125 -0.9375,0 -1.3125,1.453125 -1.3125,1.53125 0,0.109375 0.09375,0.109375 0.109375,0.109375 0.109375,0 0.109375,-0.03125 0.15625,-0.1875 0.296875,-1 0.71875,-1.234375 1.015625,-1.234375 0.078125,0 0.25,0 0.25,0.3125 0,0.25 -0.109375,0.53125 -0.171875,0.703125 -0.4375,1.15625 -0.5625,1.609375 -0.5625,2.046875 0,1.078125 0.875,1.234375 1.328125,1.234375 1.671875,0 2.25,-3.296875 2.25,-3.8125 z m 0,0"
                 id="id-a2e5b75e-2586-4b3c-b39c-79dbe269dfb7" />
            </g>
          </g>
          <g
             style="fill:#000000;fill-opacity:1"
             id="id-778d66b1-e658-4b61-8f51-bf525ee4fd5e">
            <g
               id="g2024"
               transform="translate(153.541, 136.259)">
              <path
                 style="stroke:none"
                 d="m 3,-2.625 c -0.171875,0.046875 -0.296875,0.1875 -0.296875,0.328125 0,0.171875 0.140625,0.234375 0.234375,0.234375 0.078125,0 0.34375,-0.046875 0.34375,-0.40625 0,-0.453125 -0.5,-0.609375 -0.9375,-0.609375 -1.078125,0 -1.28125,0.8125 -1.28125,1.015625 0,0.265625 0.15625,0.4375 0.25,0.515625 0.171875,0.140625 0.296875,0.171875 0.78125,0.25 0.15625,0.03125 0.59375,0.109375 0.59375,0.453125 0,0.125 -0.078125,0.390625 -0.359375,0.5625 C 2.046875,-0.125 1.703125,-0.125 1.625,-0.125 1.34375,-0.125 0.953125,-0.1875 0.78125,-0.421875 1.015625,-0.453125 1.171875,-0.625 1.171875,-0.8125 c 0,-0.171875 -0.125,-0.265625 -0.265625,-0.265625 -0.203125,0 -0.40625,0.171875 -0.40625,0.46875 0,0.421875 0.4375,0.671875 1.109375,0.671875 1.296875,0 1.53125,-0.875 1.53125,-1.140625 0,-0.640625 -0.703125,-0.765625 -0.96875,-0.8125 -0.0625,-0.015625 -0.234375,-0.046875 -0.28125,-0.0625 -0.25,-0.046875 -0.375,-0.1875 -0.375,-0.34375 0,-0.15625 0.125,-0.34375 0.28125,-0.453125 0.1875,-0.109375 0.421875,-0.125 0.546875,-0.125 0.140625,0 0.5,0.015625 0.65625,0.25 z m 0,0"
                 id="id-52aa363c-494c-461d-823d-f535b79e52c1" />
            </g>
          </g>
        </g>
      </g>
      <g
         id="g2110"
         ns2:jacobian_sqrt="0.705555"
         ns2:alignment="middle center"
         ns2:scale="2.0"
         ns2:preamble="/home/thill/.config/inkscape/extensions/textext/default_packages.tex"
         ns2:text="$+$"
         ns2:pdfconverter="inkscape"
         ns2:texconverter="pdflatex"
         ns2:version="1.0.1"
         transform="matrix(0.705555,0,0,0.705555,74.77822,104.14626)">
        <defs
           id="id-16178527-157b-4f88-aa89-7cf2c38fcaac">
          <g
             id="id-b85dda09-50c6-4f7d-98b7-b35db6e3bbe4">
            <symbol
               overflow="visible"
               id="id-43583783-0906-4a4e-9128-fb804d786526">
              <path
                 style="stroke:none"
                 d=""
                 id="id-b82ff467-a5d5-459e-afeb-659946cbe545" />
            </symbol>
            <symbol
               overflow="visible"
               id="id-0349d09f-6972-40f4-ac1c-a5bbda73cbf9">
              <path
                 style="stroke:none"
                 d="m 4.078125,-2.296875 h 2.78125 C 7,-2.296875 7.1875,-2.296875 7.1875,-2.5 7.1875,-2.6875 7,-2.6875 6.859375,-2.6875 h -2.78125 v -2.796875 c 0,-0.140625 0,-0.328125 -0.203125,-0.328125 -0.203125,0 -0.203125,0.1875 -0.203125,0.328125 V -2.6875 h -2.78125 c -0.140625,0 -0.328125,0 -0.328125,0.1875 0,0.203125 0.1875,0.203125 0.328125,0.203125 h 2.78125 V 0.5 c 0,0.140625 0,0.328125 0.203125,0.328125 0.203125,0 0.203125,-0.1875 0.203125,-0.328125 z m 0,0"
                 id="id-4ed269dd-228d-427b-a74b-f5dd176ed599" />
            </symbol>
          </g>
        </defs>
        <g
           id="id-716d23f7-4370-4a31-bbb6-573d7f6fab85"
           transform="translate(-149.275,-128.952)">
          <g
             style="fill:#000000;fill-opacity:1"
             id="id-291531ca-93cd-49be-b3fd-91d19c9fe8aa">
            <g
               id="g2106"
               transform="translate(148.712,134.765)">
              <path
                 style="stroke:none"
                 d="m 4.078125,-2.296875 h 2.78125 C 7,-2.296875 7.1875,-2.296875 7.1875,-2.5 7.1875,-2.6875 7,-2.6875 6.859375,-2.6875 h -2.78125 v -2.796875 c 0,-0.140625 0,-0.328125 -0.203125,-0.328125 -0.203125,0 -0.203125,0.1875 -0.203125,0.328125 V -2.6875 h -2.78125 c -0.140625,0 -0.328125,0 -0.328125,0.1875 0,0.203125 0.1875,0.203125 0.328125,0.203125 h 2.78125 V 0.5 c 0,0.140625 0,0.328125 0.203125,0.328125 0.203125,0 0.203125,-0.1875 0.203125,-0.328125 z m 0,0"
                 id="id-edf8f934-df6f-4f89-a1a3-6d004df832f7" />
            </g>
          </g>
        </g>
      </g>
      <g
         id="g2185"
         ns2:jacobian_sqrt="0.705555"
         ns2:alignment="middle center"
         ns2:scale="2.0"
         ns2:preamble="/home/thill/.config/inkscape/extensions/textext/default_packages.tex"
         ns2:text="$-$"
         ns2:pdfconverter="inkscape"
         ns2:texconverter="pdflatex"
         ns2:version="1.0.1"
         transform="matrix(0.705555,0,0,0.705555,75.328995,125.40112)">
        <defs
           id="id-945c92eb-93b9-471c-bc20-2f7262b35b5d">
          <g
             id="id-12abeddd-9012-4847-ac2f-525325bf650c">
            <symbol
               overflow="visible"
               id="id-8611e45b-4907-483a-ba78-29dfeee196c2">
              <path
                 style="stroke:none"
                 d=""
                 id="id-3f5c039c-c30f-41ba-b6a6-26930edd1ff0" />
            </symbol>
            <symbol
               overflow="visible"
               id="id-b632427a-6823-4a5b-ac3f-3171c69ff7cc">
              <path
                 style="stroke:none"
                 d="m 6.5625,-2.296875 c 0.171875,0 0.359375,0 0.359375,-0.203125 0,-0.1875 -0.1875,-0.1875 -0.359375,-0.1875 H 1.171875 c -0.171875,0 -0.34375,0 -0.34375,0.1875 0,0.203125 0.171875,0.203125 0.34375,0.203125 z m 0,0"
                 id="id-fd0875d1-224d-46c8-8805-f5151d86fcdb" />
            </symbol>
          </g>
        </defs>
        <g
           id="id-b679bcda-0085-42c7-961f-99e2d119459e"
           transform="translate(-149.54,-132.077)">
          <g
             style="fill:#000000;fill-opacity:1"
             id="id-596e7a89-16f7-4711-bb43-d106120367ed">
            <g
               id="g2181"
               transform="translate(148.712,134.765)">
              <path
                 style="stroke:none"
                 d="m 6.5625,-2.296875 c 0.171875,0 0.359375,0 0.359375,-0.203125 0,-0.1875 -0.1875,-0.1875 -0.359375,-0.1875 H 1.171875 c -0.171875,0 -0.34375,0 -0.34375,0.1875 0,0.203125 0.171875,0.203125 0.34375,0.203125 z m 0,0"
                 id="id-49bf3b92-b367-4412-a8fc-b070ef99c278" />
            </g>
          </g>
        </g>
      </g>
    </g>
  </g>
</svg>
